<?xml version="1.0" encoding="utf-8"?>
<!-- Generator: Adobe Illustrator 20.0.0, SVG Export Plug-In . SVG Version: 6.00 Build 0)  -->
<svg version="1.1" id="Layer_1" xmlns="http://www.w3.org/2000/svg" xmlns:xlink="http://www.w3.org/1999/xlink" x="0px" y="0px"
	 viewBox="0 0 416.9 247" style="enable-background:new 0 0 416.9 247;" xml:space="preserve">
<style type="text/css">
	.st0{fill:#3D0C22;}
	.st1{fill:#3795D1;stroke:#FFFFFF;stroke-width:3;stroke-miterlimit:10;}
	.st2{fill:#3795D1;stroke:#FFFFFF;stroke-width:2;stroke-miterlimit:10;}
	.st3{fill:#1A283B;}
	.st4{fill:#CEE0C7;}
	.st5{fill:#3795D1;}
	.st6{fill:#F1FAEE;}
	.st7{fill:none;stroke:#3795D1;stroke-miterlimit:10;}
</style>
<path class="st0" d="M186.4,86.1"/>
<path class="st1" d="M346.9,144.8c0,0-21.6-51-139.7-46c0,0-12.4,1.7-17.3,2.4c0,0-15-13.9-28.6-7.6c0,0,3.9,9.7,8.7,13.1
	c0,0-66.1,21.8-91.6,43.2c0,0-14.4-38-39.3-16.6c0,0,23.4,1.7,13.5,21c0,0-3.1,4.3,6.2,4.7c0,0-30.5,11.1-4.7,13.2
	c0,0-10.7,22.3-27.5,10.2c0,0,33,35.1,51-2.5c0,0,69.2,38.2,117.2,33.4c0,0-25.4,20.1,24.2,1.5c0,0,50-0.2,79.7-11.8
	C298.6,203,362.2,181,346.9,144.8z"/>
<ellipse class="st2" cx="283.7" cy="144.5" rx="19.3" ry="11.9"/>
<path class="st3" d="M298.6,145.4c0,3.7-4.7,0.3-7.4,0.3c-2.7,0-10.8,3.4-10.8-0.3c0-3.7,6.6-6.5,9.3-6.5
	C292.4,138.9,298.6,141.6,298.6,145.4z"/>
<g>
	<path class="st4" d="M213.6,104.5c0,0-2.3,2.1-5.7,0c0,0,6.8-40.2-34.5-46.8c0,0-12-0.4-17.8,4.7c0,0-9.2,0.3-7.2-5.7
		c0,0-10.8-1.6-2.7-12.8c0,0-3.8-5.8,5.3-7.9c0,0,25.2-5,41.8,6c0,0,15.7,9.9,19.7,17.1c0,0,12.6,17.6,5,35.2
		C217.4,94.3,215.4,101.8,213.6,104.5z"/>
	<path class="st5" d="M212.3,102.1c0,0,10.6-50.1-37.8-53.7c0,0-7.6-0.6-13.5,1.8c0,0-2.7,1-4.7,2.4c0,0-5.3,3.3-6.4,2.6
		c0,0,1.9,1.4,4.6,0.8c0,0,9.7-4.8,19.8-5.1c0,0,17.1-0.9,26.6,10.1c0.2,0.2,3.6,5.1,3.6,5.1c1.7,2.6,11.9,18.8,7.1,35.8"/>
</g>
<g>
	<path class="st6" d="M165.8,179.7c4.5,7.8,51.9,20.7,89.9,19.8c36.3-0.8,74-19.9,72.9-29.9c-0.8-6.9-27.3-6.1-63.5,3.5
		C227.4,183.1,162.9,174.8,165.8,179.7z"/>
	<path class="st7" d="M328.5,171.9c-17.1,7.1-107.8,24.9-156.6,17.4"/>
	<path class="st7" d="M331.3,165.8c-21.8,10.1-127.9,25.3-166.2,17.5"/>
</g>
</svg>
