<?xml version="1.0" encoding="utf-8"?>
<!-- Generator: Adobe Illustrator 20.0.0, SVG Export Plug-In . SVG Version: 6.00 Build 0)  -->
<svg version="1.1" id="Layer_1" xmlns="http://www.w3.org/2000/svg" xmlns:xlink="http://www.w3.org/1999/xlink" x="0px" y="0px"
	 viewBox="0 0 1130.3 506.6" style="enable-background:new 0 0 1130.3 506.6;" xml:space="preserve">
<style type="text/css">
	.st0{fill:#3D0C22;}
	.st1{fill:none;}
	.st2{fill:none;stroke:#1A283B;stroke-miterlimit:10;}
	.st3{fill:#1A283B;}
	.st4{fill:#E63946;}
	.st5{fill:#FFFFFF;}
	.st6{fill:#081244;}
	.st7{fill:#FDFEFF;}
	.st8{fill:#F1FAEE;}
	.st9{fill:none;stroke:#E63946;stroke-miterlimit:10;}
	.st10{fill:#3795D1;}
	.st11{fill:#3795D1;stroke:#FFFFFF;stroke-width:3;stroke-miterlimit:10;}
	.st12{fill:#3795D1;stroke:#FFFFFF;stroke-width:2;stroke-miterlimit:10;}
	.st13{fill:#CEE0C7;}
	.st14{fill:none;stroke:#3795D1;stroke-miterlimit:10;}
</style>
<path class="st0" d="M-554.6-1673.1"/>
<path class="st0" d="M-1268.4-1624.3"/>
<line class="st1" x1="455.1" y1="-644.2" x2="455.1" y2="-644.2"/>
<path class="st2" d="M455.1-655.8"/>
<line class="st1" x1="87.6" y1="-223.3" x2="84.6" y2="-223.3"/>
<line class="st1" x1="455.1" y1="-299.2" x2="455.1" y2="-299.2"/>
<path class="st2" d="M455.1-310.9"/>
<path class="st2" d="M159-239.1"/>
<g>
	<g>
		<g>
			<path class="st3" d="M591.1,311c0,0,6.3-17.9,15-24c0,0,16.3-12.3,25.9-12.2c0,0,20.7,0.4,24.2,11.3c0,0-31.8,2-25.3,24.9
				c0,0,10.3,13-7.3,13.5S591.1,311,591.1,311z"/>
		</g>
		<g>
			<path class="st3" d="M623.9,336.9c0,0,12.8,12.2,25,24.5c0,0,7.4,8.3,28.2-1.9c0,0,1.6,24.2-33.3,23.5c0,0-27.6-1.2-39-15.4
				c0,0-7-9.5-25.5-21.3C579.3,346.2,597,337,623.9,336.9z"/>
		</g>
		<g>
			<path class="st0" d="M351.6,152.3"/>
		</g>
	</g>
</g>
<path class="st4" d="M831.2,340.4c0,0,5.7-16.1,13.4-21.5c0,0,14.6-11,23.2-10.9c0,0,18.6,0.4,21.7,10.1c0,0-28.6,1.8-22.7,22.3
	c0,0,9.2,11.7-6.5,12.1C844.6,352.9,831.2,340.4,831.2,340.4z"/>
<path class="st4" d="M874,357.6c5.2,3.3,8.1,6.9,7,8.6c-3.4,5-21.4,0.9-41.7,11c-16.9,8.4-54.3,27.2-95.5,37.3
	c-44.4,10.9-93.2,12.9-123.9,12.9c-105.4,0-190.8-35.1-190.8-78.3c0-43.3,85.4-78.3,190.8-78.3c85.6,0,182.8,55,220.3,73
	C849.1,348.1,866.8,353.1,874,357.6z"/>
<path class="st4" d="M860.6,363.7c0,0,11.5,10.9,22.4,22c0,0,6.6,7.5,25.3-1.7c0,0,1.4,21.7-29.9,21.1c0,0-24.7-1.1-34.9-13.8
	c0,0-6.3-8.5-22.9-19.1C820.6,372,836.5,363.7,860.6,363.7z"/>
<path class="st4" d="M665.8,278.8c0,0,31-33.4,52.1-17.3c0,0-8.8,28.4-20.6,33.1C685.5,299.3,665.8,278.8,665.8,278.8z"/>
<path class="st5" d="M782.3,376.3c-9.3,16.3-108,42.9-187.4,40.5c-75.8-2.2-154.9-43-152.8-64.2c1.5-14.6,56.9-12.4,132.6,8.3
	C653.6,382.5,788.1,366.1,782.3,376.3z"/>
<ellipse class="st5" cx="625.4" cy="377.2" rx="0.3" ry="4.9"/>
<path class="st4" d="M659.1,448.1c-5.7,8.1-31.2,6.6-43.6-2.1c-12.4-8.7-17.7-40-12-48.2c5.7-8.1,18.8,22.4,31.2,31.1
	C647.1,437.6,664.8,440,659.1,448.1z"/>
<ellipse class="st5" cx="522" cy="335.1" rx="11.4" ry="5.9"/>
<circle class="st6" cx="518.6" cy="334.9" r="3.5"/>
<circle class="st5" cx="519.5" cy="333.5" r="1"/>
<path class="st7" d="M576,289.3c0,0,3.6,3.3,9.1,0c0,0-10.7-63.6,54.8-74.2c0,0,19-0.6,28.2,7.5c0,0,14.7,0.5,11.4-9
	c0,0,17.2-2.5,4.3-20.2c0,0,6-9.2-8.5-12.5c0,0-40-7.9-66.3,9.5c0,0-24.8,15.7-31.2,27.1c0,0-19.9,27.8-8,55.8
	C569.9,273.2,573.1,285,576,289.3z"/>
<path class="st7" d="M580.5,263.9c0,0-2.7,2.5-6.8,0c0,0,8.1-48.1-41.4-56.1c0,0-14.4-0.4-21.3,5.6c0,0-11.1,0.4-8.6-6.8
	c0,0-13-1.9-3.3-15.3c0,0-4.5-7,6.4-9.4c0,0,30.2-6,50.1,7.2c0,0,18.8,11.9,23.5,20.4c0,0,15.1,21,6,42.2
	C585.1,251.7,582.7,260.7,580.5,263.9z"/>
<path class="st0" d="M616.3,198"/>
<path class="st0" d="M927.4,315.8"/>
<path class="st3" d="M467.2,379.3c0,0,9.5,9.1,18.6,18.2c0,0,5.5,6.2,20.9-1.4c0,0,1.2,18-24.7,17.5c0,0-20.5-0.9-29-11.4
	c0,0-5.2-7-19-15.8C434,386.2,447.2,379.4,467.2,379.3z"/>
<path class="st3" d="M305.8,305.8c0,0,21-16.3,35.2-8.4c0,0-6,13.8-13.9,16.1C319.1,315.8,305.8,305.8,305.8,305.8z"/>
<path class="st3" d="M478.3,374.3c4.3,2.7,6.7,5.7,5.8,7.1c-2.8,4.1-17.7,0.7-34.6,9.1c-14,7-45,22.5-79.2,30.9
	c-36.8,9-77.2,10.7-102.7,10.7c-87.3,0-158.1-29.1-158.1-64.9s70.8-64.9,158.1-64.9c71,0,151.4,45.6,182.6,60.5
	C457.6,366.4,472.3,370.6,478.3,374.3z"/>
<path class="st8" d="M407.6,392.5c-7.7,13-90.9,33.6-158,31.3c-63.9-2.2-131-35.2-129.3-52.1c1.2-11.6,47.9-9.6,112,7.4
	C299,396.8,412.4,384.4,407.6,392.5z"/>
<ellipse class="st5" cx="272.3" cy="390.5" rx="0.3" ry="4"/>
<path class="st3" d="M307.7,439.7c-3.9,5.5-29.3-1.3-43.4-11.1c-14.1-9.8-26.1-37-22.2-42.5c3.9-5.5,23.4,22.6,37.4,32.5
	C293.6,428.4,311.5,434.2,307.7,439.7z"/>
<path class="st5" d="M199.6,355.6c0,2.7-7.8,4.9-13,4.9s-13.1-2.7-13.1-5.4s7.9-4.4,13.1-4.4C191.8,350.7,199.6,352.9,199.6,355.6z"
	/>
<path class="st9" d="M448.5,339.7c40.3,20.1,250.5,58.7,365.8,37.4"/>
<path class="st9" d="M445,344.8c50.4,25.2,264.1,59.6,352.7,40.1"/>
<path class="st9" d="M442.2,350.2c50.4,25.2,264.1,59.6,352.7,40.1"/>
<path class="st9" d="M439.3,355.6c50.4,25.2,264.2,64.8,349.7,35.8"/>
<ellipse transform="matrix(0.1637 -0.9865 0.9865 0.1637 -192.8162 483.3517)" cx="188.7" cy="355.4" rx="5.1" ry="5.1"/>
<circle class="st5" cx="187.2" cy="354.3" r="0.8"/>
<path class="st5" d="M210.7,314.1c0,0,3,2.7,7.5,0c0,0-8.9-52.7,45.4-61.5c0,0,15.8-0.5,23.3,6.2c0,0,12.1,0.4,9.4-7.5
	c0,0,14.2-2.1,3.6-16.8c0,0,5-7.6-7-10.3c0,0-33.2-6.5-54.9,7.9c0,0-20.6,13-25.8,22.4c0,0-16.5,23.1-6.6,46.2
	C205.6,300.8,208.3,310.6,210.7,314.1z"/>
<path class="st0" d="M264.7,242.1"/>
<line class="st1" x1="131.8" y1="365.3" x2="131.8" y2="365.3"/>
<line class="st1" x1="416.6" y1="392.7" x2="413.6" y2="392.7"/>
<line class="st1" x1="160.6" y1="458.7" x2="156.6" y2="458.7"/>
<path class="st2" d="M427.1,387.1"/>
<path class="st2" d="M131.8,355.6"/>
<path class="st2" d="M378.5,415.4"/>
<g>
	<path class="st2" d="M125.5,360.5c33.3,17.4,206.6,50.9,301.6,32.4"/>
	<path class="st2" d="M122.7,364.9c41.6,21.8,217.8,51.6,290.8,34.7"/>
	<path class="st2" d="M120.3,369.6c41.6,21.8,217.8,51.6,290.8,34.7"/>
	<path class="st2" d="M118,374.3c41.6,21.8,217.8,56.1,288.4,31"/>
	<path class="st2" d="M115.6,379c49.9,26.1,193.2,51.6,274.6,32.8"/>
	<path class="st2" d="M118,386c33.3,17.4,171.2,49.6,235.9,34.7"/>
</g>
<path class="st2" d="M216.6,317.4"/>
<path class="st10" d="M215.7,315.1c0,0-13.6-64.2,48.5-68.8c0,0,9.7-0.8,17.3,2.3c0,0,3.4,1.3,6.1,3c0,0,6.9,4.2,8.2,3.3
	c0,0-2.5,1.8-5.9,1c0,0-12.4-6.1-25.4-6.5c0,0-21.9-1.2-34.1,13c-0.2,0.2-4.6,6.6-4.6,6.6c-2.2,3.4-15.3,24.1-9.1,45.8"/>
<path class="st11" d="M1085.1,373.5c0,0-21.2-50.1-137.3-45.2c0,0-12.2,1.6-17,2.3c0,0-14.7-13.6-28.1-7.4c0,0,3.8,9.5,8.6,12.9
	c0,0-64.9,21.4-90,42.5c0,0-14.2-37.3-38.6-16.3c0,0,23,1.7,13.3,20.6c0,0-3,4.3,6.1,4.6c0,0-30,10.9-4.7,13c0,0-10.5,21.9-27.1,10
	c0,0,32.4,34.5,50.1-2.4c0,0,68,37.5,115.1,32.8c0,0-24.9,19.7,23.7,1.5c0,0,49.1-0.2,78.3-11.6
	C1037.6,430.6,1100,409.1,1085.1,373.5z"/>
<ellipse class="st12" cx="1022.9" cy="373.1" rx="18.9" ry="11.7"/>
<path class="st3" d="M1037.6,374c0,3.7-4.6,0.3-7.2,0.3s-10.6,3.4-10.6-0.3c0-3.7,6.5-6.3,9.1-6.3S1037.6,370.3,1037.6,374z"/>
<path class="st10" d="M582.7,289.8c0,0-16.2-76.4,57.7-81.9c0,0,11.5-0.9,20.6,2.8c0,0,4.1,1.6,7.2,3.6c0,0,8.2,5,9.7,3.9
	c0,0-2.9,2.2-7,1.2c0,0-14.8-7.3-30.3-7.7c0,0-26.1-1.4-40.6,15.4c-0.2,0.3-5.5,7.8-5.5,7.8c-2.6,4-18.2,28.7-10.9,54.6"/>
<g>
	<path class="st13" d="M954,333.9c0,0-2.2,2-5.6,0c0,0,6.6-39.5-33.9-46c0,0-11.8-0.4-17.5,4.6c0,0-9.1,0.3-7.1-5.6
		c0,0-10.6-1.5-2.7-12.5c0,0-3.7-5.7,5.3-7.7c0,0,24.8-4.9,41.1,5.9c0,0,15.4,9.7,19.3,16.8c0,0,12.3,17.3,4.9,34.6
		C957.8,323.9,955.8,331.2,954,333.9z"/>
	<path class="st10" d="M952.8,331.5c0,0,10.4-49.2-37.2-52.7c0,0-7.4-0.6-13.2,1.8c0,0-2.6,1-4.7,2.3c0,0-5.3,3.2-6.3,2.5
		c0,0,1.9,1.4,4.5,0.8c0,0,9.5-4.7,19.5-5c0,0,16.8-0.9,26.1,9.9c0.2,0.2,3.5,5,3.5,5c1.7,2.6,11.7,18.5,7,35.1"/>
</g>
<path class="st3" d="M442.8,360c0,0,4.7-13.3,11.1-17.8c0,0,12.1-9.2,19.2-9c0,0,15.4,0.3,18,8.4c0,0-23.7,1.5-18.8,18.5
	c0,0,7.7,9.7-5.4,10C453.9,370.4,442.8,360,442.8,360z"/>
<g>
	<path class="st8" d="M907.1,407.7c4.4,7.6,51,20.3,88.3,19.5c35.6-0.8,72.7-19.5,71.6-29.4c-0.8-6.8-26.8-6-62.3,3.4
		C967.6,411.1,904.3,403,907.1,407.7z"/>
	<path class="st14" d="M1067,400.1c-16.8,7-105.9,24.4-153.9,17.1"/>
	<path class="st14" d="M1069.7,394.1c-21.4,9.9-125.6,24.9-163.3,17.2"/>
</g>
</svg>
