<?xml version="1.0" encoding="utf-8"?>
<!-- Generator: Adobe Illustrator 20.0.0, SVG Export Plug-In . SVG Version: 6.00 Build 0)  -->
<svg version="1.1" id="Layer_1" xmlns="http://www.w3.org/2000/svg" xmlns:xlink="http://www.w3.org/1999/xlink" x="0px" y="0px"
	 viewBox="0 0 1130.3 506.6" style="enable-background:new 0 0 1130.3 506.6;" xml:space="preserve">
<style type="text/css">
	.st0{fill:none;}
	.st1{fill:#1A283B;}
	.st2{fill:#F1FAEE;}
	.st3{fill:#FFFFFF;}
	.st4{fill:none;stroke:#1A283B;stroke-miterlimit:10;}
	.st5{fill:#3D0C22;}
	.st6{fill:#3795D1;}
	.st7{fill:#3795D1;stroke:#FFFFFF;stroke-width:0.75;stroke-miterlimit:10;}
	.st8{fill:none;stroke:#3795D1;stroke-miterlimit:10;}
	.st9{fill:#3795D1;stroke:#FFFFFF;stroke-width:0.5;stroke-miterlimit:10;}
	.st10{fill:#CEE0C7;}
	.st11{fill:#E63946;}
	.st12{fill:#081244;}
	.st13{fill:#FDFEFF;}
	.st14{fill:none;stroke:#E63946;stroke-miterlimit:10;}
</style>
<line class="st0" x1="-1411.4" y1="-913.3" x2="-1414.4" y2="-913.3"/>
<path class="st1" d="M-914.7-231.2c5.5,3.5,8.6,7.3,7.4,9.1c-3.6,5.3-22.6,0.9-44.1,11.7c-17.9,8.9-57.4,28.8-101.1,39.5
	c-47,11.5-98.6,13.6-131.2,13.6c-111.6,0-202-37.1-202-82.9c0-45.8,90.4-82.9,202-82.9c90.6,0,193.4,58.2,233.2,77.2
	C-941-241.3-922.3-236-914.7-231.2z"/>
<path class="st1" d="M-960-249.4c0,0,6-17,14.2-22.8c0,0,15.5-11.7,24.6-11.5c0,0,19.7,0.4,23,10.7c0,0-30.2,1.9-24,23.6
	c0,0,9.8,12.4-6.9,12.8C-945.8-236.2-960-249.4-960-249.4z"/>
<path class="st1" d="M-928.9-224.8c0,0,12.2,11.6,23.7,23.2c0,0,7,7.9,26.8-1.8c0,0,1.5,23-31.6,22.3c0,0-26.2-1.2-37-14.6
	c0,0-6.6-9-24.2-20.2C-971.2-216-954.4-224.7-928.9-224.8z"/>
<path class="st1" d="M-1136-318.7c0,0,26.8-20.8,44.9-10.7c0,0-7.6,17.7-17.7,20.6C-1119-305.9-1136-318.7-1136-318.7z"/>
<path class="st2" d="M-991.4-207.9c-10.2,16.6-120.4,42.9-209.2,40c-84.7-2.8-173.5-44.9-171.2-66.5c1.6-14.8,63.5-12.3,148.3,9.4
	C-1135.3-202.5-985-218.3-991.4-207.9z"/>
<ellipse class="st3" cx="-1177.8" cy="-210.5" rx="0.3" ry="5.2"/>
<path class="st1" d="M-1132.6-147.7c-4.9,7-37.4-1.6-55.4-14.2c-17.9-12.6-33.3-47.3-28.4-54.3c4.9-7,29.9,28.9,47.8,41.5
	C-1150.6-162.1-1127.7-154.8-1132.6-147.7z"/>
<path class="st3" d="M-1270.6-255.1c0,3.4-9.9,6.2-16.6,6.2s-16.7-3.5-16.7-6.9c0-3.4,10-5.6,16.7-5.6S-1270.6-258.5-1270.6-255.1z"
	/>
<ellipse transform="matrix(0.1636 -0.9865 0.9865 0.1636 -827.4958 -1486.7418)" cx="-1290.6" cy="-255.3" rx="6.5" ry="6.5"/>
<circle class="st3" cx="-1292.5" cy="-256.8" r="1.1"/>
<line class="st0" x1="-1357.2" y1="-242.7" x2="-1357.2" y2="-242.7"/>
<line class="st0" x1="-989.4" y1="-209.3" x2="-991.4" y2="-209.3"/>
<path class="st4" d="M-1365.3-248.8c42.5,22.3,263.9,65,385.3,41.4"/>
<path class="st4" d="M-980-214.9"/>
<path class="st4" d="M-1357.2-255.1"/>
<path class="st4" d="M-1368.9-243.2c53.1,27.8,278.2,65.9,371.4,44.4"/>
<path class="st4" d="M-1371.9-237.2c53.1,27.8,278.2,65.9,371.4,44.4"/>
<path class="st4" d="M-1374.9-231.2c53.1,27.8,278.2,71.7,368.3,39.6"/>
<path class="st4" d="M-1377.9-225.2c63.7,33.4,246.8,65.9,350.7,41.9"/>
<path class="st4" d="M-1042.1-178.7"/>
<path class="st4" d="M-1374.9-216.3c42.5,22.3,218.6,63.4,301.3,44.3"/>
<path class="st4" d="M-1248.9-303.8"/>
<path class="st5" d="M-554.6-1673.1"/>
<path class="st5" d="M-1268.4-1624.3"/>
<line class="st0" x1="-1326.4" y1="-591.3" x2="-1329.4" y2="-591.3"/>
<path class="st1" d="M-950.2-645.6c5.2,3.2,8,6.9,6.9,8.5c-3.4,5-21.3,0.9-41.5,11c-16.8,8.4-54,27.1-95,37.1
	c-44.1,10.8-92.6,12.8-123.2,12.8c-104.8,0-189.8-34.9-189.8-77.9c0-43,85-77.9,189.8-77.9c85.2,0,181.7,54.7,219.1,72.6
	C-974.9-655.1-957.3-650.1-950.2-645.6z"/>
<path class="st1" d="M-992.7-662.7c0,0,5.7-16,13.3-21.4c0,0,14.6-11,23.1-10.9c0,0,18.5,0.4,21.6,10.1c0,0-28.4,1.8-22.5,22.2
	c0,0,9.2,11.6-6.5,12C-979.4-650.3-992.7-662.7-992.7-662.7z"/>
<path class="st1" d="M-963.5-639.6c0,0,11.5,10.9,22.3,21.8c0,0,6.6,7.4,25.1-1.7c0,0,1.4,21.6-29.7,20.9c0,0-24.6-1.1-34.7-13.7
	c0,0-6.2-8.4-22.8-19C-1003.3-631.3-987.5-639.5-963.5-639.6z"/>
<path class="st1" d="M-1157.2-727.8c0,0,25.2-19.5,42.2-10.1c0,0-7.2,16.6-16.7,19.3C-1141.2-715.8-1157.2-727.8-1157.2-727.8z"/>
<path class="st2" d="M-1022.3-623.7c-9.6,15.6-113.2,40.3-196.6,37.5c-79.6-2.6-163-42.2-160.9-62.5c1.5-13.9,59.7-11.5,139.3,8.8
	C-1157.4-618.6-1016.3-633.5-1022.3-623.7z"/>
<ellipse class="st3" cx="-1197.4" cy="-626.1" rx="0.3" ry="4.8"/>
<path class="st1" d="M-1154.9-567.2c-4.6,6.6-35.2-1.5-52-13.3c-16.9-11.8-31.3-44.4-26.7-51c4.6-6.6,28.1,27.2,44.9,39
	C-1171.8-580.7-1150.3-573.8-1154.9-567.2z"/>
<path class="st3" d="M-1284.6-668.1c0,3.2-9.3,5.9-15.6,5.9s-15.7-3.2-15.7-6.5c0-3.2,9.4-5.2,15.7-5.2S-1284.6-671.3-1284.6-668.1z
	"/>
<ellipse transform="matrix(0.1636 -0.9865 0.9865 0.1636 -431.0782 -1845.0585)" cx="-1303.7" cy="-668.3" rx="6.1" ry="6.1"/>
<circle class="st3" cx="-1305.5" cy="-669.7" r="1"/>
<path class="st3" d="M-1271.3-717.8c0,0,3.6,3.3,9,0c0,0-10.6-63.3,54.5-73.7c0,0,18.9-0.6,28,7.4c0,0,14.6,0.5,11.3-9
	c0,0,17.1-2.5,4.3-20.1c0,0,6-9.2-8.4-12.4c0,0-39.8-7.8-65.9,9.5c0,0-24.7,15.6-31,26.9c0,0-19.8,27.7-7.9,55.5
	C-1277.4-733.8-1274.2-722.1-1271.3-717.8z"/>
<path class="st5" d="M-1206.4-804.3"/>
<line class="st0" x1="-1365.9" y1="-656.4" x2="-1365.9" y2="-656.4"/>
<line class="st0" x1="-1020.4" y1="-625.3" x2="-1022.4" y2="-625.3"/>
<line class="st0" x1="-1331.4" y1="-595.3" x2="-1334.4" y2="-595.3"/>
<path class="st4" d="M-1373.5-662.2c39.9,20.9,247.9,61,362,38.9"/>
<path class="st4" d="M-1011.6-630.3"/>
<path class="st4" d="M-1365.9-668.1"/>
<path class="st4" d="M-1376.9-656.9c49.9,26.2,261.4,61.9,349,41.7"/>
<path class="st4" d="M-1379.7-651.3c49.9,26.2,261.4,61.9,349,41.7"/>
<path class="st4" d="M-1382.6-645.6c49.9,26.2,261.4,67.4,346.1,37.2"/>
<path class="st4" d="M-1385.4-640c59.9,31.4,231.9,61.9,329.5,39.3"/>
<path class="st4" d="M-1069.9-596.3"/>
<path class="st4" d="M-1382.6-631.6c39.9,20.9,205.4,59.5,283.1,41.6"/>
<path class="st4" d="M-1264.2-713.8"/>
<path class="st6" d="M-1265.2-716.6c0,0-16.3-77.1,58.2-82.6c0,0,11.6-0.9,20.7,2.8c0,0,4.1,1.6,7.3,3.6c0,0,8.2,5.1,9.8,3.9
	c0,0-2.9,2.2-7.1,1.2c0,0-14.9-7.3-30.5-7.8c0,0-26.3-1.4-40.9,15.6c-0.2,0.3-5.5,7.9-5.5,7.9c-2.6,4-18.3,28.9-10.9,55"/>
<path class="st3" d="M-1268-758.7c0,0-2.4,2.1-5.9,0c0,0,7-41.6-35.8-48.5c0,0-12.4-0.4-18.4,4.9c0,0-9.6,0.3-7.4-5.9
	c0,0-11.2-1.6-2.8-13.2c0,0-3.9-6,5.5-8.2c0,0,26.2-5.2,43.3,6.2c0,0,16.2,10.3,20.4,17.7c0,0,13,18.2,5.2,36.5
	C-1264-769.2-1266.1-761.5-1268-758.7z"/>
<path class="st6" d="M-1273.7-780.8c0,0,10.2-28.5-36.2-30.6c0,0-7.2-0.3-12.9,1c0,0-2.6,0.6-4.5,1.4c0,0-5.1,1.9-6.1,1.5
	c0,0,1.8,0.8,4.4,0.5c0,0,9.3-2.7,19-2.9c0,0,16.4-0.5,25.5,5.8c0.1,0.1,3.4,2.9,3.4,2.9c1.6,1.5,11.4,10.7,6.8,20.4"/>
<line class="st0" x1="54" y1="-639.2" x2="54" y2="-639.2"/>
<line class="st0" x1="87.6" y1="-568.3" x2="84.6" y2="-568.3"/>
<path class="st4" d="M54-650.8"/>
<path class="st1" d="M39.3-633.4c-5.2,3.2-8,6.9-6.9,8.5c3.4,5,21.3,0.9,41.5,11c16.8,8.4,54,27.1,95,37.1
	C213-565.9,261.5-564,292.1-564c104.8,0,189.8-34.9,189.8-77.9c0-43-85-77.9-189.8-77.9c-85.2,0-181.7,54.7-219.1,72.6
	C64-642.9,46.4-637.8,39.3-633.4z"/>
<path class="st1" d="M81.8-650.5c0,0-5.7-16-13.3-21.4c0,0-14.6-11-23.1-10.9c0,0-18.5,0.4-21.6,10.1c0,0,28.4,1.8,22.5,22.2
	c0,0-9.2,11.6,6.5,12C68.5-638.1,81.8-650.5,81.8-650.5z"/>
<path class="st1" d="M52.6-627.4c0,0-11.5,10.9-22.3,21.8c0,0-6.6,7.4-25.1-1.7c0,0-1.4,21.6,29.7,20.9c0,0,24.6-1.1,34.7-13.7
	c0,0,6.2-8.4,22.8-19C92.4-619,76.6-627.3,52.6-627.4z"/>
<path class="st1" d="M246.3-715.6c0,0-25.2-19.5-42.2-10.1c0,0,7.2,16.6,16.7,19.3C230.3-703.6,246.3-715.6,246.3-715.6z"/>
<path class="st2" d="M111.4-611.5c9.6,15.6,113.2,40.3,196.6,37.5c79.6-2.6,163-42.2,160.9-62.5c-1.5-13.9-59.7-11.5-139.3,8.8
	C246.6-606.4,105.4-621.2,111.4-611.5z"/>
<ellipse class="st3" cx="286.5" cy="-613.9" rx="0.3" ry="4.8"/>
<path class="st1" d="M244-554.9c4.6,6.6,35.2-1.5,52-13.3c16.9-11.8,31.3-44.4,26.7-51c-4.6-6.6-28.1,27.2-44.9,39
	C260.9-568.5,239.4-561.5,244-554.9z"/>
<path class="st3" d="M373.7-655.8c0,3.2,9.3,5.9,15.6,5.9s15.7-3.2,15.7-6.5c0-3.2-9.4-5.2-15.7-5.2S373.7-659.1,373.7-655.8z"/>
<ellipse transform="matrix(0.9865 -0.1636 0.1636 0.9865 112.6958 55.9318)" cx="395.8" cy="-656" rx="6.1" ry="6.1"/>
<circle class="st3" cx="397.7" cy="-657.4" r="1"/>
<path class="st3" d="M360.4-705.6c0,0-3.6,3.3-9,0c0,0,10.6-63.3-54.5-73.7c0,0-18.9-0.6-28,7.4c0,0-14.6,0.5-11.3-9
	c0,0-17.1-2.5-4.3-20.1c0,0-6-9.2,8.4-12.4c0,0,39.8-7.8,65.9,9.5c0,0,24.7,15.6,31,26.9c0,0,19.8,27.7,7.9,55.5
	C366.5-721.6,363.3-709.8,360.4-705.6z"/>
<path class="st5" d="M295.5-791.1"/>
<line class="st0" x1="455.1" y1="-644.2" x2="455.1" y2="-644.2"/>
<line class="st0" x1="110.6" y1="-613.3" x2="112.6" y2="-613.3"/>
<path class="st4" d="M462.6-649.9c-39.9,20.9-247.9,61-362,38.9"/>
<path class="st4" d="M100.7-618"/>
<path class="st4" d="M455.1-655.8"/>
<path class="st4" d="M466-644.7c-49.9,26.2-261.4,61.9-349,41.7"/>
<path class="st4" d="M468.9-639c-49.9,26.2-261.4,61.9-349,41.7"/>
<path class="st4" d="M471.7-633.4c-49.9,26.2-261.4,67.4-346.1,37.2"/>
<path class="st4" d="M474.5-627.7c-59.9,31.4-231.9,61.9-329.5,39.3"/>
<path class="st4" d="M159-584.1"/>
<path class="st4" d="M471.7-619.3c-39.9,20.9-205.4,59.5-283.1,41.6"/>
<path class="st4" d="M353.3-701.6"/>
<path class="st6" d="M354.4-704.4c0,0,16.3-77.1-58.2-82.6c0,0-11.6-0.9-20.7,2.8c0,0-4.1,1.6-7.3,3.6c0,0-8.2,5.1-9.8,3.9
	c0,0,2.9,2.2,7.1,1.2c0,0,14.9-7.3,30.5-7.8c0,0,26.3-1.4,40.9,15.6c0.2,0.3,5.5,7.9,5.5,7.9c2.6,4,18.3,28.9,10.9,55"/>
<path class="st3" d="M357.1-746.5c0,0,2.4,2.1,5.9,0c0,0-7-41.6,35.8-48.5c0,0,12.4-0.4,18.4,4.9c0,0,9.6,0.3,7.4-5.9
	c0,0,11.2-1.6,2.8-13.2c0,0,3.9-6-5.5-8.2c0,0-26.2-5.2-43.3,6.2c0,0-16.2,10.3-20.4,17.7c0,0-13,18.2-5.2,36.5
	C353.1-757,355.2-749.3,357.1-746.5z"/>
<path class="st6" d="M362.8-768.6c0,0-10.2-28.5,36.2-30.6c0,0,7.2-0.3,12.9,1c0,0,2.6,0.6,4.5,1.4c0,0,5.1,1.9,6.1,1.5
	c0,0-1.8,0.8-4.4,0.5c0,0-9.3-2.7-19-2.9c0,0-16.4-0.5-25.5,5.8c-0.1,0.1-3.4,2.9-3.4,2.9c-1.6,1.5-11.4,10.7-6.8,20.4"/>
<line class="st0" x1="54" y1="-294.2" x2="54" y2="-294.2"/>
<line class="st0" x1="87.6" y1="-223.3" x2="84.6" y2="-223.3"/>
<path class="st4" d="M54-305.9"/>
<path class="st1" d="M39.3-288.4c-5.2,3.2-8,6.9-6.9,8.5c3.4,5,21.3,0.9,41.5,11c16.8,8.4,54,27.1,95,37.1
	C213-220.9,261.5-219,292.1-219c104.8,0,189.8-34.9,189.8-77.9c0-43-85-77.9-189.8-77.9c-85.2,0-181.7,54.7-219.1,72.6
	C64-297.9,46.4-292.9,39.3-288.4z"/>
<path class="st1" d="M81.8-305.5c0,0-5.7-16-13.3-21.4c0,0-14.6-11-23.1-10.9c0,0-18.5,0.4-21.6,10.1c0,0,28.4,1.8,22.5,22.2
	c0,0-9.2,11.6,6.5,12C68.5-293.1,81.8-305.5,81.8-305.5z"/>
<path class="st1" d="M52.6-282.4c0,0-11.5,10.9-22.3,21.8c0,0-6.6,7.4-25.1-1.7c0,0-1.4,21.6,29.7,20.9c0,0,24.6-1.1,34.7-13.7
	c0,0,6.2-8.4,22.8-19C92.4-274.1,76.6-282.3,52.6-282.4z"/>
<path class="st1" d="M246.3-370.6c0,0-25.2-19.5-42.2-10.1c0,0,7.2,16.6,16.7,19.3C230.3-358.6,246.3-370.6,246.3-370.6z"/>
<path class="st2" d="M111.4-266.5C121-250.9,224.6-226.2,308-229c79.6-2.6,163-42.2,160.9-62.5c-1.5-13.9-59.7-11.5-139.3,8.8
	C246.6-261.4,105.4-276.3,111.4-266.5z"/>
<ellipse class="st3" cx="286.5" cy="-268.9" rx="0.3" ry="4.8"/>
<path class="st1" d="M244-210c4.6,6.6,35.2-1.5,52-13.3c16.9-11.8,31.3-44.4,26.7-51c-4.6-6.6-28.1,27.2-44.9,39
	C260.9-223.5,239.4-216.6,244-210z"/>
<path class="st5" d="M295.5-445.1"/>
<line class="st0" x1="455.1" y1="-299.2" x2="455.1" y2="-299.2"/>
<line class="st0" x1="110.6" y1="-268.3" x2="112.6" y2="-268.3"/>
<path class="st4" d="M462.6-305c-39.9,20.9-247.9,61-362,38.9"/>
<path class="st4" d="M100.7-273.1"/>
<path class="st4" d="M455.1-310.9"/>
<path class="st4" d="M466-299.7c-49.9,26.2-261.4,61.9-349,41.7"/>
<path class="st4" d="M468.9-294.1c-49.9,26.2-261.4,61.9-349,41.7"/>
<path class="st4" d="M471.7-288.4c-49.9,26.2-261.4,67.4-346.1,37.2"/>
<path class="st4" d="M474.5-282.8c-59.9,31.4-231.9,61.9-329.5,39.3"/>
<path class="st4" d="M159-239.1"/>
<path class="st4" d="M471.7-274.4c-39.9,20.9-205.4,59.5-283.1,41.6"/>
<path class="st4" d="M353.3-356.6"/>
<line class="st0" x1="-252.5" y1="-654.2" x2="-252.5" y2="-654.2"/>
<path class="st4" d="M-252.5-665.8"/>
<path class="st1" d="M-500.3-620c0,0-30.4-10.7-40.6-25.3c0,0-20.9-27.6-20.6-43.8c0,0,0.7-35.1,19.1-41c0,0,3.4,53.9,42.1,42.8
	c0,0,22.1-17.5,22.8,12.3C-476.8-645.4-500.3-620-500.3-620z"/>
<path class="st1" d="M-442.5-619.1c0,0,30.4-10.7,40.6-25.3c0,0,20.9-27.6,20.6-43.8c0,0-0.7-35.1-19.1-41c0,0-3.4,53.9-42.1,42.8
	c0,0-22.1-17.5-22.8,12.3C-466.1-644.4-442.5-619.1-442.5-619.1z"/>
<line class="st0" x1="-427.4" y1="-573.3" x2="-427.4" y2="-576.3"/>
<line class="st0" x1="-617.4" y1="-593.3" x2="-620.4" y2="-593.3"/>
<path class="st4" d="M-434.7-590.9"/>
<path class="st4" d="M-375.1-560.1"/>
<path class="st1" d="M-449.2-673.3l-38-4.5c0,0,13.8-5.5,13.8-20.2C-473.4-698-457.2-671.7-449.2-673.3z"/>
<polyline class="st1" points="-441.7,-616.1 -454.7,-677.7 -486.1,-677.8 -500.4,-620 "/>
<path class="st1" d="M-412-564.6h-110.5c-8.8,0,2.7-4.5,4.6-9.8l13.7-38.8c2.2-6.3,11.3-10.8,21.7-10.8h32.2
	c9.6,0,17.9,4.1,20.1,9.9l15,39.4C-413.1-569.3-402.9-564.6-412-564.6z"/>
<line class="st0" x1="432.6" y1="-901.3" x2="435.6" y2="-901.3"/>
<path class="st4" d="M153.9-959.9"/>
<path class="st3" d="M373.5-311.4c0,3.2,9.3,5.9,15.6,5.9s15.7-3.2,15.7-6.5c0-3.2-9.4-5.2-15.7-5.2S373.5-314.6,373.5-311.4z"/>
<ellipse transform="matrix(0.9865 -0.1636 0.1636 0.9865 56.3308 60.5348)" cx="395.6" cy="-311.6" rx="6.1" ry="6.1"/>
<circle class="st3" cx="397.4" cy="-313" r="1"/>
<line class="st6" x1="-1314.1" y1="-434" x2="-1721.9" y2="-434"/>
<path class="st7" d="M-957.8,375.2c0,0-25.9-61.2-167.6-55.1c0,0-14.8,2-20.8,2.9c0,0-17.9-16.6-34.3-9.1c0,0,4.6,11.6,10.5,15.7
	c0,0-79.2,26.2-109.8,51.9c0,0-17.3-45.5-47.2-19.9c0,0,28.1,2.1,16.2,25.1c0,0-3.7,5.2,7.4,5.6c0,0-36.6,13.3-5.7,15.8
	c0,0-12.8,26.7-33,12.2c0,0,39.6,42.1,61.2-2.9c0,0,83,45.8,140.5,40.1c0,0-30.4,24.1,29,1.8c0,0,59.9-0.3,95.6-14.2
	C-1015.8,444.9-939.6,418.6-957.8,375.2z"/>
<g>
	<path class="st2" d="M-1144.6,418.9c3.7,6.4,43,17.1,74.5,16.4c30.1-0.7,61.4-16.5,60.4-24.8c-0.6-5.7-22.6-5-52.6,2.9
		C-1093.5,421.7-1146.9,414.9-1144.6,418.9z"/>
	<path class="st8" d="M-1009.7,412.5c-14.2,5.9-89.4,20.6-129.8,14.4"/>
	<path class="st8" d="M-1007.4,407.4c-18.1,8.4-106,21-137.8,14.5"/>
</g>
<ellipse class="st9" cx="-1040.7" cy="363.3" rx="23" ry="14.2"/>
<path class="st1" d="M-1022.9,364.4c0,4.5-5.6,0.4-8.8,0.4c-3.2,0-12.9,4.1-12.9-0.4c0-4.5,7.9-7.7,11.1-7.7
	C-1030.3,356.7-1022.9,359.9-1022.9,364.4z"/>
<g>
	<path class="st10" d="M-1078.7,327.8c0,0-2.5,2.2-6.2,0c0,0,7.3-43.3-37.2-50.4c0,0-12.9-0.4-19.1,5.1c0,0-10,0.3-7.7-6.1
		c0,0-11.7-1.7-2.9-13.8c0,0-4.1-6.3,5.8-8.5c0,0,27.2-5.4,45,6.5c0,0,16.9,10.7,21.2,18.4c0,0,13.5,18.9,5.4,37.9
		C-1074.5,316.9-1076.7,324.9-1078.7,327.8z"/>
	<path class="st6" d="M-1080.1,325.2c0,0,11.4-54-40.7-57.8c0,0-8.1-0.6-14.5,1.9c0,0-2.9,1.1-5.1,2.6c0,0-5.8,3.5-6.9,2.8
		c0,0,2.1,1.6,5,0.9c0,0,10.4-5.1,21.4-5.4c0,0,18.4-1,28.7,10.9c0.2,0.2,3.9,5.5,3.9,5.5c1.8,2.8,12.8,20.2,7.7,38.5"/>
</g>
<g>
	<g>
		<g>
			<path class="st1" d="M-435.9,365.7c0,0,5.5-15.6,13-20.9c0,0,14.2-10.7,22.5-10.6c0,0,18.1,0.4,21.1,9.8c0,0-27.7,1.7-22,21.6
				c0,0,9,11.4-6.3,11.7C-422.8,377.8-435.9,365.7-435.9,365.7z"/>
		</g>
		<g>
			<path class="st1" d="M-407.4,388.2c0,0,11.2,10.6,21.8,21.3c0,0,6.4,7.2,24.5-1.7c0,0,1.4,21.1-29,20.4c0,0-24-1.1-33.9-13.4
				c0,0-6.1-8.2-22.2-18.5C-446.2,396.4-430.7,388.3-407.4,388.2z"/>
		</g>
		<g>
			<path class="st5" d="M-644.4,227.6"/>
		</g>
	</g>
</g>
<path class="st11" d="M-226.9,391.3c0,0,5-14,11.7-18.7c0,0,12.7-9.6,20.2-9.5c0,0,16.2,0.3,18.9,8.8c0,0-24.9,1.6-19.7,19.4
	c0,0,8,10.2-5.7,10.5C-215.2,402.2-226.9,391.3-226.9,391.3z"/>
<path class="st11" d="M-189.7,406.3c4.5,2.8,7,6,6.1,7.5c-3,4.4-18.6,0.8-36.3,9.6c-14.7,7.3-47.2,23.7-83.2,32.5
	c-38.6,9.5-81.1,11.2-107.9,11.2c-91.7,0-166.1-30.5-166.1-68.2c0-37.7,74.4-68.2,166.1-68.2c74.5,0,159.1,47.9,191.8,63.5
	C-211.3,398-195.9,402.4-189.7,406.3z"/>
<path class="st11" d="M-201.3,411.6c0,0,10,9.5,19.5,19.1c0,0,5.8,6.5,22-1.5c0,0,1.2,18.9-26,18.3c0,0-21.5-0.9-30.4-12
	c0,0-5.4-7.4-19.9-16.6C-236.1,418.9-222.3,411.6-201.3,411.6z"/>
<path class="st11" d="M-370.9,337.7c0,0,27-29.1,45.3-15c0,0-7.7,24.7-17.9,28.8C-353.7,355.6-370.9,337.7-370.9,337.7z"/>
<path class="st3" d="M-269.4,422.5c-8.1,14.2-94,37.3-163.1,35.3c-65.9-1.9-134.9-37.5-133-55.9c1.3-12.7,49.5-10.8,115.4,7.2
	C-381.5,428-264.4,413.7-269.4,422.5z"/>
<ellipse class="st3" cx="-406.1" cy="423.4" rx="0.3" ry="4.2"/>
<path class="st11" d="M-376.7,485.1c-5,7.1-27.2,5.7-37.9-1.8c-10.8-7.5-15.4-34.9-10.5-41.9s16.4,19.5,27.2,27.1
	C-387.2,475.9-371.8,478-376.7,485.1z"/>
<ellipse class="st3" cx="-496.1" cy="386.7" rx="9.9" ry="5.1"/>
<circle class="st12" cx="-498.9" cy="386.5" r="3"/>
<circle class="st3" cx="-498.2" cy="385.3" r="0.9"/>
<path class="st13" d="M-449,346.9c0,0,3.2,2.9,7.9,0c0,0-9.3-55.4,47.7-64.6c0,0,16.6-0.5,24.5,6.5c0,0,12.8,0.4,9.9-7.9
	c0,0,14.9-2.2,3.8-17.6c0,0,5.2-8-7.4-10.9c0,0-34.8-6.9-57.7,8.3c0,0-21.6,13.7-27.1,23.5c0,0-17.3,24.2-6.9,48.6
	C-454.4,332.8-451.5,343.1-449,346.9z"/>
<path class="st13" d="M-445.1,324.7c0,0-2.4,2.2-6,0c0,0,7-41.9-36-48.8c0,0-12.5-0.4-18.5,4.9c0,0-9.6,0.3-7.5-5.9
	c0,0-11.3-1.6-2.9-13.3c0,0-4-6.1,5.6-8.2c0,0,26.3-5.2,43.6,6.3c0,0,16.3,10.3,20.5,17.8c0,0,13.1,18.3,5.2,36.7
	C-441.1,314.1-443.2,321.9-445.1,324.7z"/>
<path class="st5" d="M-414,267.4"/>
<path class="st14" d="M-560,390.7c35.1,17.5,218.1,51.1,318.4,32.6"/>
<path class="st14" d="M-563,395.1C-519.1,417-333.1,447-256,430"/>
<path class="st14" d="M-565.5,399.9c43.9,21.9,229.9,51.9,307,34.9"/>
<path class="st14" d="M-568,404.6c43.9,21.9,229.9,56.4,304.4,31.2"/>
<path class="st6" d="M-443.2,347.3c0,0-14.1-66.5,50.2-71.3c0,0,10-0.8,17.9,2.4c0,0,3.6,1.4,6.3,3.2c0,0,7.1,4.4,8.5,3.4
	c0,0-2.5,1.9-6.1,1.1c0,0-12.9-6.3-26.4-6.7c0,0-22.7-1.2-35.3,13.4c-0.2,0.2-4.8,6.8-4.8,6.8c-2.3,3.5-15.8,24.9-9.5,47.5"/>
<g>
	<g>
		<g>
			<path class="st1" d="M591.1,311c0,0,6.3-17.9,15-24c0,0,16.3-12.3,25.9-12.2c0,0,20.7,0.4,24.2,11.3c0,0-31.8,2-25.3,24.9
				c0,0,10.3,13-7.3,13.5S591.1,311,591.1,311z"/>
		</g>
		<g>
			<path class="st1" d="M623.9,336.9c0,0,12.8,12.2,25,24.5c0,0,7.4,8.3,28.2-1.9c0,0,1.6,24.2-33.3,23.5c0,0-27.6-1.2-39-15.4
				c0,0-7-9.5-25.5-21.3C579.3,346.2,597,337,623.9,336.9z"/>
		</g>
		<g>
			<path class="st5" d="M351.6,152.3"/>
		</g>
	</g>
</g>
<path class="st11" d="M831.2,340.4c0,0,5.7-16.1,13.4-21.5c0,0,14.6-11,23.2-10.9c0,0,18.6,0.4,21.7,10.1c0,0-28.6,1.8-22.7,22.3
	c0,0,9.2,11.7-6.5,12.1C844.6,352.9,831.2,340.4,831.2,340.4z"/>
<path class="st11" d="M874,357.6c5.2,3.3,8.1,6.9,7,8.6c-3.4,5-21.4,0.9-41.7,11c-16.9,8.4-54.3,27.2-95.5,37.3
	c-44.4,10.9-93.2,12.9-123.9,12.9c-105.4,0-190.8-35.1-190.8-78.3c0-43.3,85.4-78.3,190.8-78.3c85.6,0,182.8,55,220.3,73
	C849.1,348.1,866.8,353.1,874,357.6z"/>
<path class="st11" d="M860.6,363.7c0,0,11.5,10.9,22.4,22c0,0,6.6,7.5,25.3-1.7c0,0,1.4,21.7-29.9,21.1c0,0-24.7-1.1-34.9-13.8
	c0,0-6.3-8.5-22.9-19.1C820.6,372,836.5,363.7,860.6,363.7z"/>
<path class="st11" d="M665.8,278.8c0,0,31-33.4,52.1-17.3c0,0-8.8,28.4-20.6,33.1C685.5,299.3,665.8,278.8,665.8,278.8z"/>
<path class="st3" d="M782.3,376.3c-9.3,16.3-108,42.9-187.4,40.5c-75.8-2.2-154.9-43-152.8-64.2c1.5-14.6,56.9-12.4,132.6,8.3
	C653.6,382.5,788.1,366.1,782.3,376.3z"/>
<ellipse class="st3" cx="625.4" cy="377.2" rx="0.3" ry="4.9"/>
<path class="st11" d="M659.1,448.1c-5.7,8.1-31.2,6.6-43.6-2.1c-12.4-8.7-17.7-40-12-48.2c5.7-8.1,18.8,22.4,31.2,31.1
	C647.1,437.6,664.8,440,659.1,448.1z"/>
<ellipse class="st3" cx="522" cy="335.1" rx="11.4" ry="5.9"/>
<circle class="st12" cx="518.6" cy="334.9" r="3.5"/>
<circle class="st3" cx="519.5" cy="333.5" r="1"/>
<path class="st13" d="M576,289.3c0,0,3.6,3.3,9.1,0c0,0-10.7-63.6,54.8-74.2c0,0,19-0.6,28.2,7.5c0,0,14.7,0.5,11.4-9
	c0,0,17.2-2.5,4.3-20.2c0,0,6-9.2-8.5-12.5c0,0-40-7.9-66.3,9.5c0,0-24.8,15.7-31.2,27.1c0,0-19.9,27.8-8,55.8
	C569.9,273.2,573.1,285,576,289.3z"/>
<path class="st13" d="M580.5,263.9c0,0-2.7,2.5-6.8,0c0,0,8.1-48.1-41.4-56.1c0,0-14.4-0.4-21.3,5.6c0,0-11.1,0.4-8.6-6.8
	c0,0-13-1.9-3.3-15.3c0,0-4.5-7,6.4-9.4c0,0,30.2-6,50.1,7.2c0,0,18.8,11.9,23.5,20.4c0,0,15.1,21,6,42.2
	C585.1,251.7,582.7,260.7,580.5,263.9z"/>
<path class="st5" d="M616.3,198"/>
<path class="st5" d="M927.4,315.8"/>
<path class="st1" d="M467.2,379.3c0,0,9.5,9.1,18.6,18.2c0,0,5.5,6.2,20.9-1.4c0,0,1.2,18-24.7,17.5c0,0-20.5-0.9-29-11.4
	c0,0-5.2-7-19-15.8C434,386.2,447.2,379.4,467.2,379.3z"/>
<path class="st1" d="M305.8,305.8c0,0,21-16.3,35.2-8.4c0,0-6,13.8-13.9,16.1C319.1,315.8,305.8,305.8,305.8,305.8z"/>
<path class="st1" d="M478.3,374.3c4.3,2.7,6.7,5.7,5.8,7.1c-2.8,4.1-17.7,0.7-34.6,9.1c-14,7-45,22.5-79.2,30.9
	c-36.8,9-77.2,10.7-102.7,10.7c-87.3,0-158.1-29.1-158.1-64.9c0-35.8,70.8-64.9,158.1-64.9c71,0,151.4,45.6,182.6,60.5
	C457.6,366.4,472.3,370.6,478.3,374.3z"/>
<path class="st2" d="M407.6,392.5c-7.7,13-90.9,33.6-158,31.3c-63.9-2.2-131-35.2-129.3-52.1c1.2-11.6,47.9-9.6,112,7.4
	C299,396.8,412.4,384.4,407.6,392.5z"/>
<ellipse class="st3" cx="272.3" cy="390.5" rx="0.3" ry="4"/>
<path class="st1" d="M307.7,439.7c-3.9,5.5-29.3-1.3-43.4-11.1c-14.1-9.8-26.1-37-22.2-42.5c3.9-5.5,23.4,22.6,37.4,32.5
	C293.6,428.4,311.5,434.2,307.7,439.7z"/>
<path class="st3" d="M199.6,355.6c0,2.7-7.8,4.9-13,4.9c-5.2,0-13.1-2.7-13.1-5.4s7.9-4.4,13.1-4.4
	C191.8,350.7,199.6,352.9,199.6,355.6z"/>
<path class="st14" d="M448.5,339.7c40.3,20.1,250.5,58.7,365.8,37.4"/>
<path class="st14" d="M445,344.8c50.4,25.2,264.1,59.6,352.7,40.1"/>
<path class="st14" d="M442.2,350.2c50.4,25.2,264.1,59.6,352.7,40.1"/>
<path class="st14" d="M439.3,355.6c50.4,25.2,264.2,64.8,349.7,35.8"/>
<ellipse transform="matrix(0.1637 -0.9865 0.9865 0.1637 -192.816 483.3738)" cx="188.7" cy="355.4" rx="5.1" ry="5.1"/>
<circle class="st3" cx="187.2" cy="354.3" r="0.8"/>
<path class="st3" d="M210.7,314.1c0,0,3,2.7,7.5,0c0,0-8.9-52.7,45.4-61.5c0,0,15.8-0.5,23.3,6.2c0,0,12.1,0.4,9.4-7.5
	c0,0,14.2-2.1,3.6-16.8c0,0,5-7.6-7-10.3c0,0-33.2-6.5-54.9,7.9c0,0-20.6,13-25.8,22.4c0,0-16.5,23.1-6.6,46.2
	C205.6,300.8,208.3,310.6,210.7,314.1z"/>
<path class="st5" d="M264.7,242.1"/>
<line class="st0" x1="131.8" y1="365.3" x2="131.8" y2="365.3"/>
<line class="st0" x1="416.6" y1="392.7" x2="413.6" y2="392.7"/>
<line class="st0" x1="160.6" y1="458.7" x2="156.6" y2="458.7"/>
<path class="st4" d="M427.1,387.1"/>
<path class="st4" d="M131.8,355.6"/>
<path class="st4" d="M378.5,415.4"/>
<g>
	<path class="st4" d="M125.5,360.5c33.3,17.4,206.6,50.9,301.6,32.4"/>
	<path class="st4" d="M122.7,364.9c41.6,21.8,217.8,51.6,290.8,34.7"/>
	<path class="st4" d="M120.3,369.6c41.6,21.8,217.8,51.6,290.8,34.7"/>
	<path class="st4" d="M118,374.3c41.6,21.8,217.8,56.1,288.4,31"/>
	<path class="st4" d="M115.6,379c49.9,26.1,193.2,51.6,274.6,32.8"/>
	<path class="st4" d="M118,386c33.3,17.4,171.2,49.6,235.9,34.7"/>
</g>
<path class="st4" d="M216.6,317.4"/>
<path class="st6" d="M215.7,315.1c0,0-13.6-64.2,48.5-68.8c0,0,9.7-0.8,17.3,2.3c0,0,3.4,1.3,6.1,3c0,0,6.9,4.2,8.2,3.3
	c0,0-2.5,1.8-5.9,1c0,0-12.4-6.1-25.4-6.5c0,0-21.9-1.2-34.1,13c-0.2,0.2-4.6,6.6-4.6,6.6c-2.2,3.4-15.3,24.1-9.1,45.8"/>
<path class="st7" d="M1085.1,373.5c0,0-21.2-50.1-137.3-45.2c0,0-12.2,1.6-17,2.3c0,0-14.7-13.6-28.1-7.4c0,0,3.8,9.5,8.6,12.9
	c0,0-64.9,21.4-90,42.5c0,0-14.2-37.3-38.6-16.3c0,0,23,1.7,13.3,20.6c0,0-3,4.3,6.1,4.6c0,0-30,10.9-4.7,13c0,0-10.5,21.9-27.1,10
	c0,0,32.4,34.5,50.1-2.4c0,0,68,37.5,115.1,32.8c0,0-24.9,19.7,23.7,1.5c0,0,49.1-0.2,78.3-11.6
	C1037.6,430.6,1100,409.1,1085.1,373.5z"/>
<ellipse class="st9" cx="1022.9" cy="373.1" rx="18.9" ry="11.7"/>
<path class="st1" d="M1037.6,374c0,3.7-4.6,0.3-7.2,0.3c-2.6,0-10.6,3.4-10.6-0.3c0-3.7,6.5-6.3,9.1-6.3
	C1031.5,367.7,1037.6,370.3,1037.6,374z"/>
<path class="st6" d="M582.7,289.8c0,0-16.2-76.4,57.7-81.9c0,0,11.5-0.9,20.6,2.8c0,0,4.1,1.6,7.2,3.6c0,0,8.2,5,9.7,3.9
	c0,0-2.9,2.2-7,1.2c0,0-14.8-7.3-30.3-7.7c0,0-26.1-1.4-40.6,15.4c-0.2,0.3-5.5,7.8-5.5,7.8c-2.6,4-18.2,28.7-10.9,54.6"/>
<g>
	<path class="st10" d="M954,333.9c0,0-2.2,2-5.6,0c0,0,6.6-39.5-33.9-46c0,0-11.8-0.4-17.5,4.6c0,0-9.1,0.3-7.1-5.6
		c0,0-10.6-1.5-2.7-12.5c0,0-3.7-5.7,5.3-7.7c0,0,24.8-4.9,41.1,5.9c0,0,15.4,9.7,19.3,16.8c0,0,12.3,17.3,4.9,34.6
		C957.8,323.9,955.8,331.2,954,333.9z"/>
	<path class="st6" d="M952.8,331.5c0,0,10.4-49.2-37.2-52.7c0,0-7.4-0.6-13.2,1.8c0,0-2.6,1-4.7,2.3c0,0-5.3,3.2-6.3,2.5
		c0,0,1.9,1.4,4.5,0.8c0,0,9.5-4.7,19.5-5c0,0,16.8-0.9,26.1,9.9c0.2,0.2,3.5,5,3.5,5c1.7,2.6,11.7,18.5,7,35.1"/>
</g>
<path class="st1" d="M442.8,360c0,0,4.7-13.3,11.1-17.8c0,0,12.1-9.2,19.2-9c0,0,15.4,0.3,18,8.4c0,0-23.7,1.5-18.8,18.5
	c0,0,7.7,9.7-5.4,10C453.9,370.4,442.8,360,442.8,360z"/>
<g>
	<path class="st2" d="M907.1,407.7c4.4,7.6,51,20.3,88.3,19.5c35.6-0.8,72.7-19.5,71.6-29.4c-0.8-6.8-26.8-6-62.3,3.4
		C967.6,411.1,904.3,403,907.1,407.7z"/>
	<path class="st8" d="M1067,400.1c-16.8,7-105.9,24.4-153.9,17.1"/>
	<path class="st8" d="M1069.7,394.1c-21.4,9.9-125.6,24.9-163.3,17.2"/>
</g>
</svg>
