<?xml version="1.0" encoding="utf-8"?>
<!-- Generator: Adobe Illustrator 20.0.0, SVG Export Plug-In . SVG Version: 6.00 Build 0)  -->
<svg version="1.1" id="Layer_1" xmlns="http://www.w3.org/2000/svg" xmlns:xlink="http://www.w3.org/1999/xlink" x="0px" y="0px"
	 viewBox="0 0 560.1 278" style="enable-background:new 0 0 560.1 278;" xml:space="preserve">
<style type="text/css">
	.st0{fill:none;}
	.st1{fill:#1A283B;}
	.st2{fill:#F1FAEE;}
	.st3{fill:#FFFFFF;}
	.st4{fill:none;stroke:#1A283B;stroke-miterlimit:10;}
	.st5{fill:#3D0C22;}
	.st6{fill:#3795D1;}
	.st7{fill:#3795D1;stroke:#FFFFFF;stroke-width:0.75;stroke-miterlimit:10;}
	.st8{fill:none;stroke:#3795D1;stroke-miterlimit:10;}
	.st9{fill:#3795D1;stroke:#FFFFFF;stroke-width:0.5;stroke-miterlimit:10;}
	.st10{fill:#CEE0C7;}
	.st11{fill:#E63946;}
	.st12{fill:#081244;}
	.st13{fill:#FDFEFF;}
	.st14{fill:none;stroke:#E63946;stroke-miterlimit:10;}
</style>
<g>
	<g>
		<g>
			<path class="st1" d="M255,137.1c0,0,5.5-15.6,13-20.9c0,0,14.2-10.7,22.5-10.6c0,0,18.1,0.4,21.1,9.8c0,0-27.7,1.7-22,21.6
				c0,0,9,11.4-6.3,11.7C268.1,149.2,255,137.1,255,137.1z"/>
		</g>
		<g>
			<path class="st1" d="M283.5,159.6c0,0,11.2,10.6,21.8,21.3c0,0,6.4,7.2,24.5-1.7c0,0,1.4,21.1-29,20.4c0,0-24-1.1-33.9-13.4
				c0,0-6.1-8.2-22.2-18.5C244.7,167.8,260.2,159.7,283.5,159.6z"/>
		</g>
	</g>
</g>
<path class="st11" d="M464,162.7c0,0,5-14,11.7-18.7c0,0,12.7-9.6,20.2-9.5c0,0,16.2,0.3,18.9,8.8c0,0-24.9,1.6-19.7,19.4
	c0,0,8,10.2-5.7,10.5C475.7,173.6,464,162.7,464,162.7z"/>
<path class="st11" d="M501.2,177.7c4.5,2.8,7,6,6.1,7.5c-3,4.4-18.6,0.8-36.3,9.6c-14.7,7.3-47.2,23.7-83.2,32.5
	c-38.6,9.5-81.1,11.2-107.9,11.2c-91.7,0-166.1-30.5-166.1-68.2c0-37.7,74.4-68.2,166.1-68.2c74.5,0,159.1,47.9,191.8,63.5
	C479.6,169.4,495,173.8,501.2,177.7z"/>
<path class="st11" d="M489.6,183c0,0,10,9.5,19.5,19.1c0,0,5.8,6.5,22-1.5c0,0,1.2,18.9-26,18.3c0,0-21.5-0.9-30.4-12
	c0,0-5.4-7.4-19.9-16.6C454.8,190.3,468.6,183,489.6,183z"/>
<path class="st11" d="M320,109.1c0,0,27-29.1,45.3-15c0,0-7.7,24.7-17.9,28.8C337.2,127,320,109.1,320,109.1z"/>
<path class="st3" d="M421.5,193.9c-8.1,14.2-94,37.3-163.1,35.3c-65.9-1.9-134.9-37.5-133-55.9c1.3-12.7,49.5-10.8,115.4,7.2
	C309.4,199.3,426.5,185,421.5,193.9z"/>
<ellipse class="st3" cx="284.8" cy="194.8" rx="0.3" ry="4.2"/>
<path class="st11" d="M314.2,256.5c-5,7.1-27.2,5.7-37.9-1.8c-10.8-7.5-15.4-34.9-10.5-41.9s16.4,19.5,27.2,27.1
	C303.7,247.3,319.1,249.4,314.2,256.5z"/>
<ellipse class="st3" cx="194.8" cy="158.1" rx="9.9" ry="5.1"/>
<circle class="st12" cx="192" cy="157.9" r="3"/>
<circle class="st3" cx="192.7" cy="156.7" r="0.9"/>
<path class="st13" d="M241.9,118.2c0,0,3.2,2.9,7.9,0c0,0-9.3-55.4,47.7-64.6c0,0,16.6-0.5,24.5,6.5c0,0,12.8,0.4,9.9-7.9
	c0,0,14.9-2.2,3.8-17.6c0,0,5.2-8-7.4-10.9c0,0-34.8-6.9-57.7,8.3c0,0-21.6,13.7-27.1,23.5c0,0-17.3,24.2-6.9,48.6
	C236.5,104.2,239.4,114.5,241.9,118.2z"/>
<path class="st13" d="M245.8,96.1c0,0-2.4,2.2-6,0c0,0,7-41.9-36-48.8c0,0-12.5-0.4-18.5,4.9c0,0-9.6,0.3-7.5-5.9
	c0,0-11.3-1.6-2.9-13.3c0,0-4-6.1,5.6-8.2c0,0,26.3-5.2,43.6,6.3c0,0,16.3,10.3,20.5,17.8c0,0,13.1,18.3,5.2,36.7
	C249.8,85.5,247.7,93.3,245.8,96.1z"/>
<path class="st14" d="M130.9,162.1c35.1,17.5,218.1,51.1,318.4,32.6"/>
<path class="st14" d="M127.9,166.5c43.9,21.9,229.9,51.9,307,34.9"/>
<path class="st14" d="M125.4,171.3c43.9,21.9,229.9,51.9,307,34.9"/>
<path class="st14" d="M122.9,176c43.9,21.9,229.9,56.4,304.4,31.2"/>
<path class="st6" d="M247.7,118.7c0,0-14.1-66.5,50.2-71.3c0,0,10-0.8,17.9,2.4c0,0,3.6,1.4,6.3,3.2c0,0,7.1,4.4,8.5,3.4
	c0,0-2.5,1.9-6.1,1.1c0,0-12.9-6.3-26.4-6.7c0,0-22.7-1.2-35.3,13.4c-0.2,0.2-4.8,6.8-4.8,6.8c-2.3,3.5-15.8,24.9-9.5,47.5"/>
</svg>
