<?xml version="1.0" encoding="utf-8"?>
<!-- Generator: Adobe Illustrator 20.0.0, SVG Export Plug-In . SVG Version: 6.00 Build 0)  -->
<svg version="1.1" id="Layer_1" xmlns="http://www.w3.org/2000/svg" xmlns:xlink="http://www.w3.org/1999/xlink" x="0px" y="0px"
	 viewBox="0 0 560.1 278" style="enable-background:new 0 0 560.1 278;" xml:space="preserve">
<style type="text/css">
	.st0{fill:none;}
	.st1{fill:#1A283B;}
	.st2{fill:#F1FAEE;}
	.st3{fill:#FFFFFF;}
	.st4{fill:none;stroke:#1A283B;stroke-miterlimit:10;}
	.st5{fill:#3D0C22;}
	.st6{fill:#3795D1;}
	.st7{fill:#3795D1;stroke:#FFFFFF;stroke-width:0.75;stroke-miterlimit:10;}
	.st8{fill:none;stroke:#3795D1;stroke-miterlimit:10;}
	.st9{fill:#3795D1;stroke:#FFFFFF;stroke-width:0.5;stroke-miterlimit:10;}
	.st10{fill:#CEE0C7;}
	.st11{fill:#E63946;}
	.st12{fill:#081244;}
	.st13{fill:#FDFEFF;}
	.st14{fill:none;stroke:#E63946;stroke-miterlimit:10;}
</style>
<path class="st1" d="M243,219.1c0,0-30.4-10.7-40.6-25.3c0,0-20.9-27.6-20.6-43.8c0,0,0.7-35.1,19.1-41c0,0,3.4,53.9,42.1,42.8
	c0,0,22.1-17.5,22.8,12.3C266.6,193.8,243,219.1,243,219.1z"/>
<path class="st1" d="M300.8,220.1c0,0,30.4-10.7,40.6-25.3c0,0,20.9-27.6,20.6-43.8c0,0-0.7-35.1-19.1-41c0,0-3.4,53.9-42.1,42.8
	c0,0-22.1-17.5-22.8,12.3C277.3,194.7,300.8,220.1,300.8,220.1z"/>
<path class="st1" d="M294.1,165.8l-38-4.5c0,0,13.8-5.5,13.8-20.2C269.9,141.2,286.1,167.5,294.1,165.8z"/>
<polyline class="st1" points="301.6,223 288.7,161.5 257.2,161.3 242.9,219.1 "/>
<path class="st1" d="M331.4,274.5H220.9c-8.8,0,2.7-4.5,4.6-9.8l13.7-38.8c2.2-6.3,11.3-10.8,21.7-10.8h32.2
	c9.6,0,17.9,4.1,20.1,9.9l15,39.4C330.2,269.8,340.4,274.5,331.4,274.5z"/>
</svg>
