<?xml version="1.0" encoding="utf-8"?>
<!-- Generator: Adobe Illustrator 20.0.0, SVG Export Plug-In . SVG Version: 6.00 Build 0)  -->
<svg version="1.1" id="Layer_1" xmlns="http://www.w3.org/2000/svg" xmlns:xlink="http://www.w3.org/1999/xlink" x="0px" y="0px"
	 viewBox="0 0 560.1 278" style="enable-background:new 0 0 560.1 278;" xml:space="preserve">
<style type="text/css">
	.st0{fill:none;}
	.st1{fill:#1A283B;}
	.st2{fill:#F1FAEE;}
	.st3{fill:#FFFFFF;}
	.st4{fill:none;stroke:#1A283B;stroke-miterlimit:10;}
	.st5{fill:#3D0C22;}
	.st6{fill:#3795D1;}
	.st7{fill:#3795D1;stroke:#FFFFFF;stroke-width:0.75;stroke-miterlimit:10;}
	.st8{fill:none;stroke:#3795D1;stroke-miterlimit:10;}
	.st9{fill:#3795D1;stroke:#FFFFFF;stroke-width:0.5;stroke-miterlimit:10;}
	.st10{fill:#CEE0C7;}
	.st11{fill:#E63946;}
	.st12{fill:#081244;}
	.st13{fill:#FDFEFF;}
	.st14{fill:none;stroke:#E63946;stroke-miterlimit:10;}
</style>
<path class="st1" d="M522.5,180.3c5.5,3.5,8.6,7.3,7.4,9.1c-3.6,5.3-22.6,0.9-44.1,11.7c-17.9,8.9-57.4,28.8-101.1,39.5
	c-47,11.5-98.6,13.6-131.2,13.6c-111.6,0-202-37.1-202-82.9c0-45.8,90.4-82.9,202-82.9c90.6,0,193.4,58.2,233.2,77.2
	C496.2,170.2,514.9,175.6,522.5,180.3z"/>
<path class="st1" d="M477.3,162.1c0,0,6-17,14.2-22.8c0,0,15.5-11.7,24.6-11.5c0,0,19.7,0.4,23,10.7c0,0-30.2,1.9-24,23.6
	c0,0,9.8,12.4-6.9,12.8C491.5,175.3,477.3,162.1,477.3,162.1z"/>
<path class="st1" d="M508.4,186.7c0,0,12.2,11.6,23.7,23.2c0,0,7,7.9,26.8-1.8c0,0,1.5,23-31.6,22.3c0,0-26.2-1.2-37-14.6
	c0,0-6.6-9-24.2-20.2C466,195.6,482.9,186.8,508.4,186.7z"/>
<path class="st1" d="M301.2,92.8c0,0,26.8-20.8,44.9-10.7c0,0-7.6,17.7-17.7,20.6C318.2,105.6,301.2,92.8,301.2,92.8z"/>
<path class="st2" d="M445.8,203.6c-10.2,16.6-120.4,42.9-209.2,40c-84.7-2.8-173.5-44.9-171.2-66.5c1.6-14.8,63.5-12.3,148.3,9.4
	C302,209.1,452.2,193.3,445.8,203.6z"/>
<ellipse class="st3" cx="259.4" cy="201.1" rx="0.3" ry="5.2"/>
<path class="st1" d="M304.6,263.8c-4.9,7-37.4-1.6-55.4-14.2s-33.3-47.3-28.4-54.3c4.9-7,29.9,28.9,47.8,41.5
	C286.6,249.4,309.6,256.8,304.6,263.8z"/>
<path class="st3" d="M166.6,156.4c0,3.4-9.9,6.2-16.6,6.2s-16.7-3.5-16.7-6.9c0-3.4,10-5.6,16.7-5.6S166.6,153,166.6,156.4z"/>
<ellipse transform="matrix(0.1636 -0.9865 0.9865 0.1636 -31.4349 275.3098)" cx="146.7" cy="156.2" rx="6.5" ry="6.5"/>
<circle class="st3" cx="144.7" cy="154.7" r="1.1"/>
<path class="st4" d="M72,162.7c42.5,22.3,263.9,65,385.3,41.4"/>
<path class="st4" d="M68.4,168.3c53.1,27.8,278.2,65.9,371.4,44.4"/>
<path class="st4" d="M65.3,174.3c53.1,27.8,278.2,65.9,371.4,44.4"/>
<path class="st4" d="M62.3,180.3c53.1,27.8,278.2,71.7,368.3,39.6"/>
<path class="st4" d="M59.3,186.3c63.7,33.4,246.8,65.9,350.7,41.9"/>
<path class="st4" d="M62.3,195.3c42.5,22.3,218.6,63.4,301.3,44.3"/>
</svg>
