<?xml version="1.0" encoding="utf-8"?>
<!-- Generator: Adobe Illustrator 20.0.0, SVG Export Plug-In . SVG Version: 6.00 Build 0)  -->
<svg version="1.1" id="Layer_1" xmlns="http://www.w3.org/2000/svg" xmlns:xlink="http://www.w3.org/1999/xlink" x="0px" y="0px"
	 viewBox="0 0 560.1 278" style="enable-background:new 0 0 560.1 278;" xml:space="preserve">
<style type="text/css">
	.st0{fill:none;}
	.st1{fill:#1A283B;}
	.st2{fill:#F1FAEE;}
	.st3{fill:#FFFFFF;}
	.st4{fill:none;stroke:#1A283B;stroke-miterlimit:10;}
	.st5{fill:#3D0C22;}
	.st6{fill:#3795D1;}
	.st7{fill:#3795D1;stroke:#FFFFFF;stroke-width:0.75;stroke-miterlimit:10;}
	.st8{fill:none;stroke:#3795D1;stroke-miterlimit:10;}
	.st9{fill:#3795D1;stroke:#FFFFFF;stroke-width:0.5;stroke-miterlimit:10;}
	.st10{fill:#CEE0C7;}
	.st11{fill:#E63946;}
	.st12{fill:#081244;}
	.st13{fill:#FDFEFF;}
	.st14{fill:none;stroke:#E63946;stroke-miterlimit:10;}
</style>
<path class="st1" d="M487.1,193.6c5.2,3.2,8,6.9,6.9,8.5c-3.4,5-21.3,0.9-41.5,11c-16.8,8.4-54,27.1-95,37.1
	C313.4,261,264.9,263,234.3,263c-104.8,0-189.8-34.9-189.8-77.9c0-43,85-77.9,189.8-77.9c85.2,0,181.7,54.7,219.1,72.6
	C462.3,184,479.9,189.1,487.1,193.6z"/>
<path class="st1" d="M444.5,176.4c0,0,5.7-16,13.3-21.4c0,0,14.6-11,23.1-10.9c0,0,18.5,0.4,21.6,10.1c0,0-28.4,1.8-22.5,22.2
	c0,0,9.2,11.6-6.5,12C457.9,188.9,444.5,176.4,444.5,176.4z"/>
<path class="st1" d="M473.7,199.5c0,0,11.5,10.9,22.3,21.8c0,0,6.6,7.4,25.1-1.7c0,0,1.4,21.6-29.7,20.9c0,0-24.6-1.1-34.7-13.7
	c0,0-6.2-8.4-22.8-19C434,207.9,449.8,199.6,473.7,199.5z"/>
<path class="st1" d="M280.1,111.3c0,0,25.2-19.5,42.2-10.1c0,0-7.2,16.6-16.7,19.3C296.1,123.3,280.1,111.3,280.1,111.3z"/>
<path class="st2" d="M415,215.5c-9.6,15.6-113.2,40.3-196.6,37.5c-79.6-2.6-163-42.2-160.9-62.5c1.5-13.9,59.7-11.5,139.3,8.8
	C279.8,220.6,421,205.7,415,215.5z"/>
<ellipse class="st3" cx="239.9" cy="213.1" rx="0.3" ry="4.8"/>
<path class="st1" d="M282.3,272c-4.6,6.6-35.2-1.5-52-13.3s-31.3-44.4-26.7-51c4.6-6.6,28.1,27.2,44.9,39
	C265.4,258.4,287,265.4,282.3,272z"/>
<path class="st3" d="M152.6,171.1c0,3.2-9.3,5.9-15.6,5.9s-15.7-3.2-15.7-6.5c0-3.2,9.4-5.2,15.7-5.2S152.6,167.9,152.6,171.1z"/>
<ellipse transform="matrix(0.1636 -0.9865 0.9865 0.1636 -56.8973 274.6554)" cx="133.5" cy="170.9" rx="6.1" ry="6.1"/>
<circle class="st3" cx="131.7" cy="169.5" r="1"/>
<path class="st3" d="M166,121.4c0,0,3.6,3.3,9,0c0,0-10.6-63.3,54.5-73.7c0,0,18.9-0.6,28,7.4c0,0,14.6,0.5,11.3-9
	c0,0,17.1-2.5,4.3-20.1c0,0,6-9.2-8.4-12.4c0,0-39.8-7.8-65.9,9.5c0,0-24.7,15.6-31,26.9c0,0-19.8,27.7-7.9,55.5
	C159.8,105.3,163.1,117.1,166,121.4z"/>
<path class="st4" d="M63.7,177c39.9,20.9,247.9,61,362,38.9"/>
<path class="st4" d="M60.3,182.3c49.9,26.2,261.4,61.9,349,41.7"/>
<path class="st4" d="M57.5,187.9c49.9,26.2,261.4,61.9,349,41.7"/>
<path class="st4" d="M54.7,193.6c49.9,26.2,261.4,67.4,346.1,37.2"/>
<path class="st4" d="M51.9,199.2c59.9,31.4,231.9,61.9,329.5,39.3"/>
<path class="st4" d="M54.7,207.6c39.9,20.9,205.4,59.5,283.1,41.6"/>
<path class="st6" d="M172,122.6c0,0-16.3-77.1,58.2-82.6c0,0,11.6-0.9,20.7,2.8c0,0,4.1,1.6,7.3,3.6c0,0,8.2,5.1,9.8,3.9
	c0,0-2.9,2.2-7.1,1.2c0,0-14.9-7.3-30.5-7.8c0,0-26.3-1.4-40.9,15.6c-0.2,0.3-5.5,7.9-5.5,7.9c-2.6,4-18.3,28.9-10.9,55"/>
<path class="st3" d="M169.2,80.5c0,0-2.4,2.1-5.9,0c0,0,7-41.6-35.8-48.5c0,0-12.4-0.4-18.4,4.9c0,0-9.6,0.3-7.4-5.9
	c0,0-11.2-1.6-2.8-13.2c0,0-3.9-6,5.5-8.2c0,0,26.2-5.2,43.3,6.2c0,0,16.2,10.3,20.4,17.7c0,0,13,18.2,5.2,36.5
	C173.2,69.9,171.1,77.7,169.2,80.5z"/>
<path class="st6" d="M163.5,58.3c0,0,10.2-28.5-36.2-30.6c0,0-7.2-0.3-12.9,1c0,0-2.6,0.6-4.5,1.4c0,0-5.1,1.9-6.1,1.5
	c0,0,1.8,0.8,4.4,0.5c0,0,9.3-2.7,19-2.9c0,0,16.4-0.5,25.5,5.8c0.1,0.1,3.4,2.9,3.4,2.9c1.6,1.5,11.4,10.7,6.8,20.4"/>
</svg>
