<?xml version="1.0" encoding="utf-8"?>
<!-- Generator: Adobe Illustrator 20.0.0, SVG Export Plug-In . SVG Version: 6.00 Build 0)  -->
<svg version="1.1" id="Layer_1" xmlns="http://www.w3.org/2000/svg" xmlns:xlink="http://www.w3.org/1999/xlink" x="0px" y="0px"
	 viewBox="0 0 560.1 278" style="enable-background:new 0 0 560.1 278;" xml:space="preserve">
<style type="text/css">
	.st0{fill:none;}
	.st1{fill:#1A283B;}
	.st2{fill:#F1FAEE;}
	.st3{fill:#FFFFFF;}
	.st4{fill:none;stroke:#1A283B;stroke-miterlimit:10;}
	.st5{fill:#3D0C22;}
	.st6{fill:#3795D1;}
	.st7{fill:#3795D1;stroke:#FFFFFF;stroke-width:0.75;stroke-miterlimit:10;}
	.st8{fill:none;stroke:#3795D1;stroke-miterlimit:10;}
	.st9{fill:#3795D1;stroke:#FFFFFF;stroke-width:0.5;stroke-miterlimit:10;}
	.st10{fill:#CEE0C7;}
	.st11{fill:#E63946;}
	.st12{fill:#081244;}
	.st13{fill:#FDFEFF;}
	.st14{fill:none;stroke:#E63946;stroke-miterlimit:10;}
</style>
<path class="st1" d="M75.1,194.8c-5.2,3.2-8,6.9-6.9,8.5c3.4,5,21.3,0.9,41.5,11c16.8,8.4,54,27.1,95,37.1
	c44.1,10.8,92.6,12.8,123.2,12.8c104.8,0,189.8-34.9,189.8-77.9c0-43-85-77.9-189.8-77.9c-85.2,0-181.7,54.7-219.1,72.6
	C99.8,185.3,82.2,190.3,75.1,194.8z"/>
<path class="st1" d="M117.6,177.7c0,0-5.7-16-13.3-21.4c0,0-14.6-11-23.1-10.9c0,0-18.5,0.4-21.6,10.1c0,0,28.4,1.8,22.5,22.2
	c0,0-9.2,11.6,6.5,12C104.3,190.1,117.6,177.7,117.6,177.7z"/>
<path class="st1" d="M88.4,200.8c0,0-11.5,10.9-22.3,21.8c0,0-6.6,7.4-25.1-1.7c0,0-1.4,21.6,29.7,20.9c0,0,24.6-1.1,34.7-13.7
	c0,0,6.2-8.4,22.8-19C128.2,209.1,112.4,200.9,88.4,200.8z"/>
<path class="st1" d="M282.1,112.6c0,0-25.2-19.5-42.2-10.1c0,0,7.2,16.6,16.7,19.3C266.1,124.6,282.1,112.6,282.1,112.6z"/>
<path class="st2" d="M147.2,216.7c9.6,15.6,113.2,40.3,196.6,37.5c79.6-2.6,163-42.2,160.9-62.5c-1.5-13.9-59.7-11.5-139.3,8.8
	C282.3,221.8,141.1,207,147.2,216.7z"/>
<ellipse class="st3" cx="322.3" cy="214.3" rx="0.3" ry="4.8"/>
<path class="st1" d="M279.8,273.3c4.6,6.6,35.2-1.5,52-13.3c16.9-11.8,31.3-44.4,26.7-51c-4.6-6.6-28.1,27.2-44.9,39
	C296.7,259.7,275.2,266.6,279.8,273.3z"/>
<path class="st4" d="M498.4,178.2c-39.9,20.9-247.9,61-362,38.9"/>
<path class="st4" d="M501.8,183.5c-49.9,26.2-261.4,61.9-349,41.7"/>
<path class="st4" d="M504.6,189.2c-49.9,26.2-261.4,61.9-349,41.7"/>
<path class="st4" d="M507.4,194.8C457.5,221,246,262.2,161.4,232"/>
<path class="st4" d="M510.3,200.5c-59.9,31.4-231.9,61.9-329.5,39.3"/>
<path class="st4" d="M507.4,208.8c-39.9,20.9-205.4,59.5-283.1,41.6"/>
<path class="st3" d="M409.2,171.8c0,3.2,9.3,5.9,15.6,5.9s15.7-3.2,15.7-6.5c0-3.2-9.4-5.2-15.7-5.2S409.2,168.6,409.2,171.8z"/>
<ellipse transform="matrix(0.9865 -0.1636 0.1636 0.9865 -22.2645 72.9016)" cx="431.3" cy="171.6" rx="6.1" ry="6.1"/>
<circle class="st3" cx="433.2" cy="170.2" r="1"/>
</svg>
