<?xml version="1.0" encoding="utf-8"?>
<!-- Generator: Adobe Illustrator 20.0.0, SVG Export Plug-In . SVG Version: 6.00 Build 0)  -->
<svg version="1.1" id="Layer_1" xmlns="http://www.w3.org/2000/svg" xmlns:xlink="http://www.w3.org/1999/xlink" x="0px" y="0px"
	 viewBox="0 0 560.1 278" style="enable-background:new 0 0 560.1 278;" xml:space="preserve">
<style type="text/css">
	.st0{fill:none;}
	.st1{fill:#1A283B;}
	.st2{fill:#F1FAEE;}
	.st3{fill:#FFFFFF;}
	.st4{fill:none;stroke:#1A283B;stroke-miterlimit:10;}
	.st5{fill:#3D0C22;}
	.st6{fill:#3795D1;}
	.st7{fill:#3795D1;stroke:#FFFFFF;stroke-width:0.75;stroke-miterlimit:10;}
	.st8{fill:none;stroke:#3795D1;stroke-miterlimit:10;}
	.st9{fill:#3795D1;stroke:#FFFFFF;stroke-width:0.5;stroke-miterlimit:10;}
	.st10{fill:#CEE0C7;}
	.st11{fill:#E63946;}
	.st12{fill:#081244;}
	.st13{fill:#FDFEFF;}
	.st14{fill:none;stroke:#E63946;stroke-miterlimit:10;}
</style>
<path class="st1" d="M75.1,195.8c-5.2,3.2-8,6.9-6.9,8.5c3.4,5,21.3,0.9,41.5,11c16.8,8.4,54,27.1,95,37.1
	c44.1,10.8,92.6,12.8,123.2,12.8c104.8,0,189.8-34.9,189.8-77.9c0-43-85-77.9-189.8-77.9c-85.2,0-181.7,54.7-219.1,72.6
	C99.8,186.3,82.2,191.3,75.1,195.8z"/>
<path class="st1" d="M117.6,178.7c0,0-5.7-16-13.3-21.4c0,0-14.6-11-23.1-10.9c0,0-18.5,0.4-21.6,10.1c0,0,28.4,1.8,22.5,22.2
	c0,0-9.2,11.6,6.5,12C104.3,191.1,117.6,178.7,117.6,178.7z"/>
<path class="st1" d="M88.4,201.8c0,0-11.5,10.9-22.3,21.8c0,0-6.6,7.4-25.1-1.7c0,0-1.4,21.6,29.7,20.9c0,0,24.6-1.1,34.7-13.7
	c0,0,6.2-8.4,22.8-19C128.2,210.1,112.4,201.9,88.4,201.8z"/>
<path class="st1" d="M282.1,113.6c0,0-25.2-19.5-42.2-10.1c0,0,7.2,16.6,16.7,19.3C266.1,125.6,282.1,113.6,282.1,113.6z"/>
<path class="st2" d="M147.2,217.7c9.6,15.6,113.2,40.3,196.6,37.5c79.6-2.6,163-42.2,160.9-62.5c-1.5-13.9-59.7-11.5-139.3,8.8
	C282.3,222.8,141.1,208,147.2,217.7z"/>
<ellipse class="st3" cx="322.3" cy="215.3" rx="0.3" ry="4.8"/>
<path class="st1" d="M279.8,274.3c4.6,6.6,35.2-1.5,52-13.3c16.9-11.8,31.3-44.4,26.7-51c-4.6-6.6-28.1,27.2-44.9,39
	C296.7,260.7,275.2,267.6,279.8,274.3z"/>
<path class="st3" d="M409.5,173.4c0,3.2,9.3,5.9,15.6,5.9s15.7-3.2,15.7-6.5c0-3.2-9.4-5.2-15.7-5.2S409.5,170.1,409.5,173.4z"/>
<ellipse transform="matrix(0.9865 -0.1636 0.1636 0.9865 -22.5141 72.9625)" cx="431.6" cy="173.1" rx="6.1" ry="6.1"/>
<circle class="st3" cx="433.4" cy="171.8" r="1"/>
<path class="st3" d="M396.2,123.6c0,0-3.6,3.3-9,0c0,0,10.6-63.3-54.5-73.7c0,0-18.9-0.6-28,7.4c0,0-14.6,0.5-11.3-9
	c0,0-17.1-2.5-4.3-20.1c0,0-6-9.2,8.4-12.4c0,0,39.8-7.8,65.9,9.5c0,0,24.7,15.6,31,26.9c0,0,19.8,27.7,7.9,55.5
	C402.3,107.6,399.1,119.4,396.2,123.6z"/>
<path class="st4" d="M498.4,179.2c-39.9,20.9-247.9,61-362,38.9"/>
<path class="st4" d="M501.8,184.5c-49.9,26.2-261.4,61.9-349,41.7"/>
<path class="st4" d="M504.6,190.2c-49.9,26.2-261.4,61.9-349,41.7"/>
<path class="st4" d="M507.4,195.8C457.5,222,246,263.2,161.4,233"/>
<path class="st4" d="M510.3,201.5c-59.9,31.4-231.9,61.9-329.5,39.3"/>
<path class="st4" d="M507.4,209.8c-39.9,20.9-205.4,59.5-283.1,41.6"/>
<path class="st6" d="M390.1,124.8c0,0,16.3-77.1-58.2-82.6c0,0-11.6-0.9-20.7,2.8c0,0-4.1,1.6-7.3,3.6c0,0-8.2,5.1-9.8,3.9
	c0,0,2.9,2.2,7.1,1.2c0,0,14.9-7.3,30.5-7.8c0,0,26.3-1.4,40.9,15.6c0.2,0.3,5.5,7.9,5.5,7.9c2.6,4,18.3,28.9,10.9,55"/>
<path class="st3" d="M392.9,82.7c0,0,2.4,2.1,5.9,0c0,0-7-41.6,35.8-48.5c0,0,12.4-0.4,18.4,4.9c0,0,9.6,0.3,7.4-5.9
	c0,0,11.2-1.6,2.8-13.2c0,0,3.9-6-5.5-8.2c0,0-26.2-5.2-43.3,6.2c0,0-16.2,10.3-20.4,17.7c0,0-13,18.2-5.2,36.5
	C388.9,72.2,391,79.9,392.9,82.7z"/>
<path class="st6" d="M398.6,60.6c0,0-10.2-28.5,36.2-30.6c0,0,7.2-0.3,12.9,1c0,0,2.6,0.6,4.5,1.4c0,0,5.1,1.9,6.1,1.5
	c0,0-1.8,0.8-4.4,0.5c0,0-9.3-2.7-19-2.9c0,0-16.4-0.5-25.5,5.8c-0.1,0.1-3.4,2.9-3.4,2.9c-1.6,1.5-11.4,10.7-6.8,20.4"/>
</svg>
