<?xml version="1.0" encoding="utf-8"?>
<!-- Generator: Adobe Illustrator 20.0.0, SVG Export Plug-In . SVG Version: 6.00 Build 0)  -->
<svg version="1.1" id="Layer_1" xmlns="http://www.w3.org/2000/svg" xmlns:xlink="http://www.w3.org/1999/xlink" x="0px" y="0px"
	 viewBox="0 0 210 149.6" style="enable-background:new 0 0 210 149.6;" xml:space="preserve">
<style type="text/css">
	.st0{fill:#FFFFFF;}
</style>
<g>
	<g>
		<path class="st0" d="M122.2,34.3l3.3-2l6.8,0.2l5.3,0.8l3.5-1.3l1.2-3.5l5.3,1.3h0.3l0.3,0.4l1.9,2l0.5,0.1l1.9-0.8l3.9,0.8
			c3.8-0.5,6.1-0.8,6.8-0.8c1.1,0,2.2,0.2,3.3,0.7c0.3,0,0.8,0,1.6,0.1c1.2,0,2,0,2.4,0h0.9l4.5-0.8l3.9,0.6l0.5,0.2l2-0.8l2.8,0.8
			h6.7h2.9h7.1l-3.3,6.6l-3.1,0.4h-4.1l-2.3,0.3l-1.7-0.3l-8.4,0.8l-2.4-0.8l-0.5,0.1c-0.9,0.4-2.4,0.7-4.5,1.1h-4.8l-1.1-0.4H165
			c-0.9,0-2.2,0.2-3.9,0.6c-1.3,0.3-3,0.4-4.9,0.4l-2.2-0.5l-0.4,1.7h-1.6l-0.4,6.3l0.7,1.1l-0.3,2l-0.1,3.5c0,3.6-0.4,6.1-1.1,7.3
			l1.1,1.5l-0.8,3.9l0.8,1.1l-1.5,2.1v1.1l-0.8,1.5l0.5,2.9l-0.3,5.6l-0.9,2.5c0.1,0.1,0.1,0.3,0.1,0.7c0-0.2-0.1,0.4-0.4,1.7
			c0,0.1,0,0.3,0.1,0.5c0,0.3,0,0.5,0,0.7c0,1-0.4,1.9-1.1,2.8l0.5,1.9c0,0.6,0,1-0.1,1.2l-0.1,0.4c-0.2,0.5-0.3,1.1-0.3,1.6
			c0,1.7,0.2,3.1,0.5,4.3c-2,0.4-3.1,0.5-3.3,0.5c-0.8,0-1.5-0.1-2-0.3l-0.3-0.1c-2.3-0.5-3.5-2.7-3.5-6.4c0-0.4,0-1.1,0-1.9
			c0-0.7-0.1-1.7-0.2-3c-0.1-1.3-0.2-2.2-0.2-2.9c0-0.9,0.1-1.6,0.4-2.3l0.5-5.5c-0.7-1-1.1-1.8-1.1-2.4c0-0.2,0.2-0.5,0.5-1.1
			c-0.5-0.7-0.8-1.2-0.8-1.6c0-0.7,0.2-1.3,0.7-1.7c0-0.8,0.4-1.9,1.1-3.3c-0.2-0.7-0.3-1.5-0.3-2.3c0.6,0,0.9-0.3,0.9-0.9
			c0-0.2-0.1-0.5-0.3-0.9c-0.2-0.4-0.3-0.8-0.3-1.3l0.5,0.5l-0.7-1.2c0-1.7,0.2-3.1,0.7-4.4v-3.9l-0.7-2.8l0.7-5.2l-0.7-3.9l0.3-1.3
			l-2,0.1l-1.5,0.8l-1.1-0.1v0.5c-1.9,0-3.7-0.1-5.5-0.4l-4.9-1.4l-4.2-2.4"/>
	</g>
	<circle class="st0" cx="90.9" cy="36.4" r="5.4"/>
	<circle class="st0" cx="107.9" cy="36.4" r="5.4"/>
	<g>
		<path class="st0" d="M76.7,40.8c-0.3,0.1,4.5,6.9,3.3,7.5l-2.8,3.1L73.5,54l-1.2,0.4l-1.2,2.1l-2.9,1.7l-1.5,1.5l-1.3,3.3
			l-4.9,5.5L58.8,71l-0.7,1.3l0.8,1.3L57.9,76l0.7,2.3l-1.1,3.1l0.3,1.9l0.9,3.7c-1.3,1.6-2,3.1-2,4.4c0,0.6,0.1,1.6,0.3,2.8
			c0.2,1.2,0.3,2.1,0.3,2.7l-1.1,5.9l0.3,3.3l-0.5,1.2l0.9,4.8l-1.1,1.6l0.9,2.4l-0.8,1.2l0.5,1.1c0.3,0.5,0.4,1.1,0.4,1.7v0.7
			l-0.9,3.3l0.8,3.6l-1.2,2.5l1.2,1.6v0.9c0,3.5-0.5,6.1-1.5,7.5c-1,1.5-2.8,2.2-5.5,2.2l-1.2-6.4l-1.2-3.8l-0.1-2.5l-1.7-1.1
			l1.1-2.7l-0.6-1.9l0.5-4l-0.8-4.3l0.4-3.3c0-0.2,0-0.5,0-0.9c-0.1-0.4-0.1-0.8-0.1-1.1c0-0.3,0-0.6,0.1-0.9c0-0.4,0-0.6,0-0.8
			l-0.7-6.1l0.7-2.9l-0.4-3.2l0.8-5.3l-1.2-2.1l0.7-3.2L46,83.2L45,80.8c0.7-1.6,1.1-2.8,1.1-3.7c0-0.5-0.1-0.9-0.3-1.2l-0.5-2.4
			l-0.8-2.3l-1.3-1.1L42.3,69c-1.5-0.8-3.5-2.7-6-5.9l-2.1-1.3l-1.9-3.5L27,53.5l-1.1-1.9L23.8,49l-4-3.2v-1.3l-2-1.3
			c-0.4-2.2-1.3-3.3-2.8-3.3c-3.6-2-5.5-5.1-5.6-9.3l0.7-3.5h1.6c0.6-0.5,1.6-0.8,2.9-0.8s3.2,0.4,5.6,1.2l0.9,2.1l2.1,0.7l2.4,3.7
			l3.5,2.5l0.1,1.2l2.8,4.4l2,1.5l7.3,10.1l2.4,3.1c3.2,3.3,5.7,5.9,7.5,8v-0.4c0-1.1,0.5-2.2,1.6-3.3l-0.1,0.7
			c0.6-1.4,1.4-2.6,2.3-3.5c0.3-1.2,0.9-2.2,1.9-2.9c0.2-0.6,1-1.6,2.5-2.9l1.2-0.5l0.4-0.5c0.8-2.3,2.4-3.5,4.8-3.5l0.3,0.5
			l1.2-2.3c1.1-0.3,1.5-0.4,1.3-0.4c0.8-1,1.5-1.8,2-2.4L76.7,40.8"/>
	</g>
</g>
</svg>
