<?xml version="1.0" encoding="utf-8"?>
<!-- Generator: Adobe Illustrator 20.0.0, SVG Export Plug-In . SVG Version: 6.00 Build 0)  -->
<svg version="1.1" id="Layer_1" xmlns="http://www.w3.org/2000/svg" xmlns:xlink="http://www.w3.org/1999/xlink" x="0px" y="0px"
	 viewBox="0 0 316.3 75.1" style="enable-background:new 0 0 316.3 75.1;" xml:space="preserve">
<style type="text/css">
	.st0{fill:none;}
	.st1{fill:#FFFFFF;}
	.st2{font-family:'MyriadPro-CondIt';}
	.st3{font-size:50px;}
	.st4{font-family:'MyriadPro-Cond';}
	.st5{letter-spacing:-2;}
	.st6{fill:#E63946;}
	.st7{font-family:'JustAnotherHand-Regular';}
	.st8{font-size:55px;}
</style>
<rect y="16.6" class="st0" width="91.5" height="46.1"/>
<text transform="matrix(1 0 0 1 2.898702e-04 51.2179)"><tspan x="0" y="0" class="st1 st2 st3">  </tspan><tspan x="14.7" y="0" class="st1 st4 st3"> I’</tspan><tspan x="41.3" y="0" class="st1 st4 st3 st5">	</tspan><tspan x="46.5" y="0" class="st1 st4 st3">m</tspan><tspan x="77.5" y="0" class="st1 st2 st3">  </tspan></text>
<text transform="matrix(1 0 0 1 120.2353 52.4008)" class="st6 st7 st8">Y</text>
<text transform="matrix(1 0 0 1 143.1921 52.4008)" class="st6 st7 st8">u</text>
<text transform="matrix(1 0 0 1 163.9273 52.4008)" class="st6 st7 st8">n</text>
<text transform="matrix(1 0 0 1 186.8841 52.4008)" class="st6 st7 st8">-</text>
<text transform="matrix(1 0 0 1 208.9953 52.4008)" class="st6 st7 st8">T</text>
<text transform="matrix(1 0 0 1 230.471 52.4008)" class="st6 st7 st8">i</text>
<text transform="matrix(1 0 0 1 246.9089 52.4008)" class="st6 st7 st8">n</text>
<text transform="matrix(1 0 0 1 270.8657 52.4008)" class="st6 st7 st8">g</text>
</svg>
