<?xml version="1.0" encoding="utf-8"?>
<!-- Generator: Adobe Illustrator 20.0.0, SVG Export Plug-In . SVG Version: 6.00 Build 0)  -->
<svg version="1.1" id="圖層_1" xmlns="http://www.w3.org/2000/svg" xmlns:xlink="http://www.w3.org/1999/xlink" x="0px" y="0px"
	 viewBox="0 0 153.8 147.3" style="enable-background:new 0 0 153.8 147.3;" xml:space="preserve">
<style type="text/css">
	.st0{fill:#ECECEC;}
	.st1{fill:#E6AF2E;}
	.st2{fill:none;stroke:#E6AF2E;stroke-width:5;stroke-linecap:round;stroke-miterlimit:10;}
	.st3{fill:#A8DADC;stroke:#495338;stroke-width:1.3;stroke-miterlimit:10;}
	.st4{fill:none;stroke:#495338;stroke-width:1.3;stroke-miterlimit:10;}
	.st5{fill:none;stroke:#495338;stroke-width:1.3;stroke-miterlimit:10;stroke-dasharray:2.0212,2.0212;}
	.st6{fill:#A8DADC;}
	.st7{fill:none;stroke:#495338;stroke-width:1.3;stroke-miterlimit:10;stroke-dasharray:2;}
	.st8{fill:#FFFFFF;stroke:#495338;stroke-width:1.3;stroke-miterlimit:10;}
	.st9{fill:#ECECEC;stroke:#495338;stroke-width:1.3;stroke-miterlimit:10;}
	.st10{fill:none;stroke:#282F44;stroke-miterlimit:10;}
	.st11{fill:#282F44;}
	.st12{fill:#ECECEC;stroke:#282F44;stroke-miterlimit:10;}
	.st13{fill:#E6AF2E;stroke:#ECECEC;stroke-width:5;stroke-linecap:round;stroke-miterlimit:10;}
</style>
<g>
	<g>
		<g>
			<g>
				<g>
					<g>
						
							<rect x="6.8" y="47.5" transform="matrix(0.3227 -0.9465 0.9465 0.3227 -37.6834 74.7145)" class="st6" width="53.2" height="32.4"/>
						
							<rect x="6.8" y="47.5" transform="matrix(0.3227 -0.9465 0.9465 0.3227 -37.6834 74.7145)" class="st4" width="53.2" height="32.4"/>
					</g>
				</g>
			</g>
			<g>
				<polygon class="st6" points="26.7,33.6 28.7,37.9 53.4,46.4 57.7,44.3 				"/>
				<polygon class="st4" points="26.7,33.6 28.7,37.9 53.4,46.4 57.7,44.3 				"/>
			</g>
			<g>
				<line class="st6" x1="41.1" y1="42.2" x2="25.3" y2="88.5"/>
				<line class="st4" x1="41.1" y1="42.2" x2="25.3" y2="88.5"/>
			</g>
			<polygon class="st3" points="32.7,59.8 26.9,67.3 37.6,64.7 			"/>
		</g>
	</g>
	<g>
		<rect x="64.3" y="35.8" class="st4" width="79.1" height="60.7"/>
		<rect x="70.6" y="41.1" class="st4" width="66.7" height="50"/>
	</g>
	<polygon class="st3" points="123.9,46.3 120.1,57.2 131.3,50 	"/>
	<circle class="st3" cx="103.9" cy="93.4" r="12.7"/>
	<g>
		<g>
			<rect x="39.9" y="76.6" class="st9" width="60.7" height="41.3"/>
			<rect x="44.3" y="81.6" class="st9" width="18.3" height="18.3"/>
			<polygon class="st3" points="53.5,82.9 48.4,97.6 63.6,87.8 			"/>
		</g>
		
			<rect x="67.6" y="109.7" transform="matrix(-1 -1.224647e-16 1.224647e-16 -1 162.9444 223.5611)" class="st9" width="27.7" height="4.2"/>
		
			<rect x="67.6" y="90.6" transform="matrix(-1 -1.224647e-16 1.224647e-16 -1 162.9444 195.4015)" class="st9" width="27.7" height="14.1"/>
		
			<rect x="67.6" y="81.6" transform="matrix(-1 -1.224647e-16 1.224647e-16 -1 162.9444 167.5118)" class="st9" width="27.7" height="4.2"/>
	</g>
</g>
<path class="st7" d="M53.2,118.9c0,0-0.5,6.7-0.1,7.1c0.4,0.4,77.8,0.1,77.8,0.1V96.7"/>
</svg>
